<svg xmlns="http://www.w3.org/2000/svg" xmlns:xlink="http://www.w3.org/1999/xlink" width="180" height="180" viewBox="0 0 180 180"><defs><style>.a,.i{fill:#fff;}.a{stroke:#707070;}.b{clip-path:url(#a);}.c{fill:#f77a0c;opacity:0.24;}.d{fill:#00244e;}.e{fill:#2f2e41;}.f{fill:#9f616a;}.g{fill:#e6e6e6;}.h{fill:#f77a22;}.j{fill:url(#b);}.k{fill:#3f3d56;}.l{fill:none;stroke:#fff;stroke-linecap:round;stroke-linejoin:round;stroke-width:3px;}</style><clipPath id="a"><rect class="a" width="180" height="180" transform="translate(674 3308)"/></clipPath><linearGradient id="b" x1="0.505" y1="0.705" x2="0.385" y2="-2.001" gradientUnits="objectBoundingBox"><stop offset="0" stop-opacity="0"/><stop offset="0.99"/></linearGradient></defs><g class="b" transform="translate(-674 -3308)"><path class="c" d="M52.3-58.5c12.3,6.4,16.7,26,13.9,42.1C63.5-.3,53.4,12.4,45.7,26.9,37.9,41.3,32.4,57.6,22.1,62c-10.4,4.3-25.5-3.3-43.3-8-17.7-4.6-38-6.3-48.7-17.3-10.6-10.9-11.5-31.1-8.6-51,2.9-20,9.7-39.8,23.4-46,13.7-6.1,34.4,1.4,54.8,1.8C20-58.1,40.1-64.9,52.3-58.5Z" transform="translate(770.926 3397.682)"/><g transform="translate(655.627 3322.189)"><circle class="d" cx="28.841" cy="28.841" r="28.841" transform="translate(115.692 70.023)"/><g transform="translate(-18.127 -7.296)"><path class="e" d="M312.139,163.41l-16.274,2.756A1.647,1.647,0,0,1,294,164.983c-1.176-4.244-3.634-9.779-1.247-12.558a4.566,4.566,0,0,1,4.809-4.085h0c2.907-4.551,7.749-3.867,11.022-1.025,3.294,1.137,4.536,3.156,4.1,5.9a6.341,6.341,0,0,1,2.326,4.188,6.049,6.049,0,0,1-1.655,4.705Z" transform="translate(-208.234 -140.947)"/><path class="f" d="M324.819,240.785l-12.616-.742a13.864,13.864,0,0,0,1.237-8.163h9.4C322.818,233.87,323.809,237.314,324.819,240.785Z" transform="translate(-223.443 -205.51)"/><path class="g" d="M300.662,720.58l-.517,7.074a2.252,2.252,0,0,0,2.382,2.412l3.633-.22a1.149,1.149,0,0,0,1.045-1.425l-2.017-8.067Z" transform="translate(-214.472 -568.731)"/><path class="g" d="M342.107,720.353l-2.017,8.067a1.149,1.149,0,0,0,1.045,1.425l3.633.22a2.252,2.252,0,0,0,2.382-2.412l-.517-7.074Z" transform="translate(-244.154 -568.731)"/><path class="h" d="M139.379,372.811l-4.9-.492-4.882-52.18-1.845,52.012-4.817-.173-8.119-72.034h31.02Z" transform="translate(-36.666 -219.981)"/><circle class="f" cx="9.369" cy="9.369" r="9.369" transform="translate(85.576 10.635)"/><path class="e" d="M321.354,171.715a27.969,27.969,0,0,0-11.175.087,16.278,16.278,0,0,1-8.187.064v-6.318l16.691.3Z" transform="translate(-215.851 -156.187)"/><path class="i" d="M318.555,216.938a17.145,17.145,0,0,1-12.869,0c1.3-2.222-.644-3.962-1.643-6.2l16.7-.5C319.468,212.186,317.584,214.488,318.555,216.938Z" transform="translate(-217.376 -189.417)"/><rect class="i" width="0.257" height="2.138" transform="translate(85.353 20.234) rotate(-50.195)"/><rect class="i" width="5.355" height="0.256" transform="matrix(0.537, -0.844, 0.844, 0.537, 100.797, 27.323)"/><rect class="i" width="0.256" height="5.355" transform="translate(85.6 22.943) rotate(-32.471)"/><path class="j" d="M139.379,372.811l-4.9-.492-4.882-52.18-1.845,52.012-4.817-.173-8.119-72.034h31.02Z" transform="translate(-36.666 -219.981)"/><path class="h" d="M246.058,292.633l-7.174-4.453L245,270.262a8.453,8.453,0,0,1,3.695-4.389l2.061-1.193.179,18.076Z" transform="translate(-168.925 -229.9)"/><path class="h" d="M293.756,289.857l-1.061-9.09a31.892,31.892,0,0,1,2.706-13.712l.989-13.358-10.884-4.453c-.033.222-.062.443-.094.665l-5.1,2.551-4.975-1.131.028-1.59-9.895,4.453c3.272,15.213,1.487,31.01-4.139,49.67l13.035,3.564.108-6.259,11.617-.83c.12,2.031.216,4.025.272,5.976,6.555,2.413,6.78,2.373,12.753-1.082A70.094,70.094,0,0,1,293.756,289.857Z" transform="translate(-185.614 -218.422)"/><path class="h" d="M246.7,150.894l-6.679-2.226L229.34,136.231l3.262-10.568,14.842,20.779Z" transform="translate(-121.827 -90.388)"/><path class="i" d="M371.285,392.4a1.858,1.858,0,0,0,2.219,1.4l5.67-1.284-.819-3.619-5.67,1.284a1.856,1.856,0,0,0-1.4,2.219Z" transform="translate(-267.342 -322.267)"/><path class="h" d="M391.309,357.54l3.216,5.937c5.409-1.509,10.1-6.264,14.595-11.874l-1.237-3.958-7.668,1.979Z" transform="translate(-282.266 -291.592)"/><path class="i" d="M71.79,172.661l6.173,1.1,14.111,20.064-7.5-1.764Z" transform="translate(-4.675 -125.335)"/><path class="k" d="M222.02,312.65a.525.525,0,0,0-.431.814l13.19,20.012a.523.523,0,0,0,.318.222l6.137,1.444a.524.524,0,0,0,.549-.812L227.3,313.739a.521.521,0,0,0-.337-.214l-4.845-.865a.569.569,0,0,0-.1-.009Z" transform="translate(-156 -265.57)"/><path class="i" d="M255.608,366.76l.367,3.692,5.785-.574a1.855,1.855,0,0,0-.366-3.692Z" transform="translate(-181.36 -305.371)"/><path class="h" d="M235.991,357.809a4.772,4.772,0,0,0,4.766,4.74h.951l.692-5.771-5.734-2.064Z" transform="translate(-166.773 -296.848)"/><path class="i" d="M210.873,64.923l-.181-.181.274-.274,1.636-1.91.195.167-1.643,1.917Z" transform="translate(-107.96 -43.464)"/></g><g transform="translate(126.14 79.127)"><path class="l" d="M15.621,4.447,1.984,27.215a3.22,3.22,0,0,0,2.753,4.83H32.012a3.22,3.22,0,0,0,2.753-4.83L21.128,4.447a3.22,3.22,0,0,0-5.507,0Z" transform="translate(0 0)"/><line class="l" y2="10.441" transform="translate(18.375 10.723)"/><line class="l" x2="0.016" transform="translate(18.375 25.604)"/></g></g></g></svg>