<svg xmlns="http://www.w3.org/2000/svg" xmlns:xlink="http://www.w3.org/1999/xlink" width="180" height="180" viewBox="0 0 180 180"><defs><style>.a,.h{fill:#fff;}.a{stroke:#707070;}.b{clip-path:url(#a);}.c,.d{fill:#f77a0c;}.c{opacity:0.24;isolation:isolate;}.e{fill:url(#b);}.f{fill:#ba816c;}.g{fill:#a6634c;}.i,.r{fill:none;}.i{stroke:#000;stroke-miterlimit:10;stroke-width:0.8px;}.j{fill:#606161;}.k{fill:url(#c);}.l{fill:url(#d);}.m{fill:url(#e);}.n{opacity:0.54;fill:url(#f);}.o{fill:url(#g);}.p{fill:url(#h);}.q{fill:#00244e;}.r{stroke:#fff;stroke-linecap:round;stroke-linejoin:round;stroke-width:3px;}</style><clipPath id="a"><rect class="a" width="180" height="180" transform="translate(1282 2752)"/></clipPath><linearGradient id="b" x1="0.476" y1="0.076" x2="0.704" y2="3.045" gradientUnits="objectBoundingBox"><stop offset="0" stop-color="#010101" stop-opacity="0"/><stop offset="0.95" stop-color="#010101" stop-opacity="0.439"/></linearGradient><linearGradient id="c" x1="0.5" y1="0.712" x2="0.511" y2="0.251" xlink:href="#b"/><linearGradient id="d" x1="0" y1="0.499" x2="1" y2="0.499" xlink:href="#b"/><linearGradient id="e" x1="-0.001" y1="0.499" x2="0.999" y2="0.499" xlink:href="#b"/><linearGradient id="f" x1="0.494" y1="1.164" x2="0.507" y2="-0.31" gradientUnits="objectBoundingBox"><stop offset="0" stop-color="#fff" stop-opacity="0"/><stop offset="0.15" stop-color="#fff" stop-opacity="0.22"/><stop offset="0.32" stop-color="#fff" stop-opacity="0.451"/><stop offset="0.48" stop-color="#fff" stop-opacity="0.651"/><stop offset="0.64" stop-color="#fff" stop-opacity="0.8"/><stop offset="0.78" stop-color="#fff" stop-opacity="0.91"/><stop offset="0.91" stop-color="#fff" stop-opacity="0.98"/><stop offset="1" stop-color="#fff"/></linearGradient><linearGradient id="g" x1="0.439" y1="1.243" x2="0.742" y2="-2.321" gradientUnits="objectBoundingBox"><stop offset="0" stop-color="#010101" stop-opacity="0"/><stop offset="0.95" stop-color="#010101"/></linearGradient><linearGradient id="h" x1="0.506" y1="-0.66" x2="0.466" y2="6.239" xlink:href="#b"/></defs><g class="b" transform="translate(-1282 -2752)"><g transform="translate(1297.71 2771.309)"><path class="c" d="M84.539,7.851c-6.621,5.111-10.032,13.319-15.731,19.44C60.473,36.253,47.7,40.281,39.987,49.766c-8.922,10.957-8.962,27.327-2.819,40.056,3.154,6.548,7.907,13.247,6.441,20.356-.705,3.449-2.833,6.462-3.672,9.879-1.477,6.016,1.385,12.516,6.025,16.618s10.784,6.12,16.9,7.118c20.142,3.281,40.507-3.469,60.91-3.831,6.016-.11,12.062.338,18.038-.37,15.592-1.845,29.778-11.874,37.6-25.479a14.308,14.308,0,0,0,2.342-6.788c.041-2.466-1.015-4.8-2-7.06-3.18-7.274-5.881-14.843-6.762-22.727-.931-8.283.179-16.673-.425-24.988-1.1-15.092-9.13-30.663-23.184-36.269-11.423-4.556-25.138-1.174-36.139-6.684-4.626-2.313-6.158-5.852-11.874-6.424A23.856,23.856,0,0,0,84.539,7.851Z" transform="translate(-32.877 -3.053)"/><path class="c" d="M150.712,419.719c-7.108-.039-15.637.72-18.982,7,11.206,7.527,25.5,8.414,39,8.417a136.366,136.366,0,0,0,18.638-.982c8.421-1.178,16.586-3.7,24.712-6.218l9.2-2.841c.874-.272,1.9-.707,2.032-1.614.946-6.4-25.527-3.616-29.72-3.505C180.67,420.36,165.652,419.807,150.712,419.719Z" transform="translate(-115.262 -296.659)"/><path class="d" d="M245.211,108.556s-6.172,2.674-6.9,3.273c-.655.543,1.113,37.613,1.247,39.427s10.008,2.114,14.289,1.3A46.355,46.355,0,0,0,262.184,150s1.352-38.291.51-38.968-9.013-3.214-9.013-3.214Z" transform="translate(-186.866 -87.135)"/><path class="d" d="M305,116.455a6.3,6.3,0,0,1,3.168.655c1.283.779,13.353,11.33,13.654,14.436s-2.124,5.069-3.181,4.857-4.313-3.41-5.043-4.415-7.2-2.343-7.2-2.343Z" transform="translate(-231.826 -92.939)"/><path class="e" d="M239.882,142.859a.841.841,0,0,0,.8.835c3.947.848,7.8-1.473,11.756-2.291,1.793-.363,3.682-.425,5.328-1.227,2.016-.982,3.368-2.919,4.624-4.778l3.273-4.817c.52-.772,1.054-1.777.566-2.569a1.687,1.687,0,0,0-1.937-.547,5.25,5.25,0,0,0-1.784,1.2,47,47,0,0,1-8.921,6.166,21.038,21.038,0,0,1-4.294,1.81c-2.618.72-7.3.115-9.949.229C239.326,136.883,239.555,141.069,239.882,142.859Z" transform="translate(-187.653 -100.286)"/><path class="d" d="M335.885,146.9a4.873,4.873,0,0,1,1.9,1.532c.854,1.165,2.327,2.857,2.618,4.255a3.95,3.95,0,0,1-2.765,4.2,5.933,5.933,0,0,1-5.5-2.137,6.634,6.634,0,0,1-1.146-5.868C331.666,146.417,333.987,146.034,335.885,146.9Z" transform="translate(-249.142 -113.142)"/><path class="f" d="M293.14,426.59s-.74,4.88-.327,5.433,2.743.373,4.186.052,1.793-2.186,1.793-2.186l.1-1.535Z" transform="translate(-223.543 -301.58)"/><path class="f" d="M230.894,419.64s-1.479,6.621-1.132,7.2,2.945-.857,4.405-1.037,1.6-2.536,1.6-2.536l.249-1.519Z" transform="translate(-181.175 -296.905)"/><path class="f" d="M258.86,98.1s.543,3.95.111,5.413,1.574,5.842,4.549,6.11,3.433-4.791,3.489-5.387-.812-.982-.383-2.435S259.318,96.337,258.86,98.1Z" transform="translate(-200.786 -80.299)"/><path class="g" d="M266.626,101.791a2.334,2.334,0,0,0,.3,2.049,3.77,3.77,0,0,1-2.549.864,6.98,6.98,0,0,1-5.282-4.68l-.049-.154c-.082-1-.187-1.78-.187-1.78C259.318,96.332,267.058,100.331,266.626,101.791Z" transform="translate(-200.786 -80.294)"/><path class="h" d="M255.971,111.068s1.892,5.835,3.885,6.614c0,0,.53.347-1.038,1.106s-5.335-4.081-4.444-7.3a2.461,2.461,0,0,1,1.636-1.767Z" transform="translate(-197.678 -88.413)"/><path class="h" d="M279.066,111.9s.288,4.189-1.636,6.873c0,0,.615,1.126,1.211,1.178s2.405-3.384,2.052-6.117C280.484,112.253,279.4,111.5,279.066,111.9Z" transform="translate(-213.279 -89.81)"/><path class="i" d="M222.69,177.32" transform="translate(-176.454 -133.889)"/><path class="j" d="M235.97,237.989l-1.227,25.023L232.39,297.7s1.352,1.62,5.236,1.672l7.007-35.29,3.292-17.935,2.841,17.483,1.181,36.435s2.752.056,6.323.38l2.317-35.931L258.3,236.7Z" transform="translate(-182.979 -173.836)"/><path class="k" d="M235.97,237.989l-1.227,25.023L232.39,297.7s1.352,1.62,5.236,1.672l7.007-35.29,3.292-17.935,2.841,17.483,1.181,36.435s2.752.056,6.323.38l2.317-35.931L258.3,236.7Z" transform="translate(-182.979 -173.836)"/><path class="f" d="M267.625,66.186s-.1,7.792-.887,9.818-2.729,3.659-4.516,3.5a6.977,6.977,0,0,1-5.279-4.677c-.949-2.785-.956-9.4-.576-10.253s2.428-3.518,7.141-2.657C266.758,62.508,267.733,65,267.625,66.186Z" transform="translate(-198.951 -56.138)"/><path class="j" d="M256.071,51.766a6.832,6.832,0,0,0-2.026-1.561,6.4,6.4,0,0,0-2.425-.524c-1.6-.075-3.4.311-4.281,1.636a4.933,4.933,0,0,0-.569,3.021.782.782,0,0,1-.052.416c-.164.308-.609.245-.956.242-1.378,0-2.311,1.636-2,2.975.406,1.764,2.134,2.114,2.9,3.489.124.223.3.471.553.478.327,0,.5-.36.6-.655.478-1.571.265-3.047,1.394-4.431a.527.527,0,0,1,.308-.219c.386-.043.445.677.831.733.354-.452.861-.962,1.411-.789a1.669,1.669,0,0,1,.746.73,5.776,5.776,0,0,0,8.2,1.231,2.4,2.4,0,0,0,.926-1.231,2.89,2.89,0,0,0-.445-1.993,4.909,4.909,0,0,0-.982-1.463,1.806,1.806,0,0,0-1.636-.494,1.564,1.564,0,0,1-.766.151.981.981,0,0,1-.435-.327C256.929,52.725,256.51,52.231,256.071,51.766Z" transform="translate(-190.588 -48.018)"/><path class="f" d="M253.319,83.1s-.137-1.813-1.381-1.325-.052,3.9.517,4.255a1.676,1.676,0,0,0,.864.327" transform="translate(-195.762 -69.56)"/><path class="f" d="M341.934,134.2s-1.574-2.4,1.924-4.886,14.282-9.376,14.282-9.376l.684,3.976s-10.4,13.389-13.111,12.953a5.259,5.259,0,0,1-3.78-2.667Z" transform="translate(-256.435 -95.288)"/><path class="f" d="M392.18,108.3a16.137,16.137,0,0,1,.88-1.381c.2-.278.452-.5.655-.769.3-.4.187-1.181.209-1.682a3.475,3.475,0,0,1,.386-1.6.484.484,0,0,1,.213-.216.357.357,0,0,1,.357.085.893.893,0,0,1,.209.327,5.139,5.139,0,0,1,.425,1.676c.029.429.157.769.592.592a6.349,6.349,0,0,1,1.286-.36c.4-.069,1.636-.327,1.787.262.275,1.06-1.43,4.945-1.538,5.236s-4.781,1.823-4.781,1.823Z" transform="translate(-290.474 -83.65)"/><path class="j" d="M213.743,436.346a1.163,1.163,0,0,0-.5.933c.056.363.393.576.713.73,2.225,1.067,4.844.887,7.265.389a4.511,4.511,0,0,0,2.464-1.106,3.354,3.354,0,0,0,.733-1.381,5.463,5.463,0,0,0,.193-2.055.877.877,0,0,0-.327-.713.929.929,0,0,0-.455-.088c-1.613-.036-3.944-.57-5.426.075A15.766,15.766,0,0,0,213.743,436.346Z" transform="translate(-170.095 -305.766)"/><path class="j" d="M292.112,437.67a2.215,2.215,0,0,0-1.152.016,1.427,1.427,0,0,0-.808,1.178,4.177,4.177,0,0,0,.17,1.486,2.618,2.618,0,0,0,.471,1.145,2.291,2.291,0,0,0,1.27.635,16.068,16.068,0,0,0,2.743.3l5.793.311a1.826,1.826,0,0,0,1.247-.232,1.227,1.227,0,0,0,.2-1.5,3.335,3.335,0,0,0-1.175-1.123c-1.113-.736-2.687-1.964-4.029-2.167a13.676,13.676,0,0,0-2.088.131A17.4,17.4,0,0,1,292.112,437.67Z" transform="translate(-221.831 -308.988)"/><path class="l" d="M213.743,436.346a1.163,1.163,0,0,0-.5.933c.056.363.393.576.713.73,2.225,1.067,4.844.887,7.265.389a4.511,4.511,0,0,0,2.464-1.106,3.354,3.354,0,0,0,.733-1.381,5.463,5.463,0,0,0,.193-2.055.877.877,0,0,0-.327-.713.929.929,0,0,0-.455-.088c-1.613-.036-3.944-.57-5.426.075A15.766,15.766,0,0,0,213.743,436.346Z" transform="translate(-170.095 -305.766)"/><path class="m" d="M292.112,437.67a2.215,2.215,0,0,0-1.152.016,1.427,1.427,0,0,0-.808,1.178,4.177,4.177,0,0,0,.17,1.486,2.618,2.618,0,0,0,.471,1.145,2.291,2.291,0,0,0,1.27.635,16.068,16.068,0,0,0,2.743.3l5.793.311a1.826,1.826,0,0,0,1.247-.232,1.227,1.227,0,0,0,.2-1.5,3.335,3.335,0,0,0-1.175-1.123c-1.113-.736-2.687-1.964-4.029-2.167a13.676,13.676,0,0,0-2.088.131A17.4,17.4,0,0,1,292.112,437.67Z" transform="translate(-221.831 -308.988)"/><path class="d" d="M283.638,111.13a1.04,1.04,0,0,1,.18-.785,8.817,8.817,0,0,0,2.189-6.487,7.917,7.917,0,0,0-8.051-7.527l-18.288.3a3.817,3.817,0,0,1,.029-.52c.268-1.771.52-3.538.808-5.3a16.743,16.743,0,0,0-.278-7.027,52.619,52.619,0,0,0-3.466-9.115,6.351,6.351,0,0,0-3.227-3.341c-3.08-1.378-6.081-1.433-8.961.484A5.466,5.466,0,0,0,241.812,77c.151,2.618.085,5.207.157,7.819a4.232,4.232,0,0,1-.278,1.865c-.252.566-.655,1.024-.9,1.607a14.3,14.3,0,0,1-.749,1.345c-.5.923-1.011,1.839-1.545,2.743a66.216,66.216,0,0,1-4.984,7.884c-.772.982-1.607,1.918-2.441,2.857a.555.555,0,0,1-.864.121,4.389,4.389,0,0,0-2.811-.815q-10.748.164-21.489.344a4.59,4.59,0,0,0-4.644,5.128c.226,2.618.481,5.236.727,7.828.213,2.379.406,4.759.655,7.128.268,2.851.566,5.7.844,8.548.2,1.937.353,3.872.556,5.809a2.99,2.99,0,0,0,.327.8l-.281.046a13.287,13.287,0,0,0,.475,2.972c1.1,2.72,3.214,3.148,5.593,2.916.049,0,.075-.144.111-.223a4.441,4.441,0,0,0,.959.216c5.688-.085,11.386-.167,17.074-.281A4.255,4.255,0,0,0,232.341,141a15.279,15.279,0,0,0,.612-2.065,6.509,6.509,0,0,1,.746.363c.74.432,1.5.893,2.186,1.368a2.775,2.775,0,0,0,.465.278,4.909,4.909,0,0,0,1.031.219,5.623,5.623,0,0,0,1.214.147c4.484-.046,8.957-.128,13.418-.2,5.495-.092,11.019-.164,16.527-.288l1.771-.043a5.115,5.115,0,0,0,2.314-.625,23.17,23.17,0,0,0,3.486-2.513,8.224,8.224,0,0,0,2.926-8.64,1.283,1.283,0,0,1,.255-.835c.445-.655.946-1.27,1.378-1.931.1-.157.033-.425.036-.638.429.242.393-.19.458-.363a8.645,8.645,0,0,0,.272-5.2,1,1,0,0,1,.17-.785A8.287,8.287,0,0,0,283.638,111.13Zm-55.941.259.439,26.728c.016.907.016.907-.91.92-5.855.1-11.707.183-17.558.3-.655.02-.851-.17-.91-.805q-.38-4.582-.835-9.164c-.255-2.677-.55-5.354-.8-8.031-.223-2.291-.406-4.582-.615-6.9-.19-2.1-.38-4.2-.605-6.3-.069-.6.134-.727.7-.723,4.84-.062,9.671-.151,14.511-.229,1.636-.026,3.273-.046,4.929-.043a.956.956,0,0,1,.327.033.936.936,0,0,1,.461.389,2.677,2.677,0,0,1,.655,1.453,1.964,1.964,0,0,0,.088.491c.029.134.059.259.092.4a10.308,10.308,0,0,1,.033,1.476ZM279,108.443c-.285.18-.6.311-.877.5-.6.406-.655.8-.124,1.286a4.08,4.08,0,0,1,.1,6.074,12.555,12.555,0,0,1-2.183,1.538c-.763.439-.861.893-.17,1.42a3.1,3.1,0,0,1,1.289,2.131c.046.327.137.655.209.982a5.834,5.834,0,0,1-3.793,4.441c-.759.327-.828.7-.213,1.227a4.064,4.064,0,0,1,1.424,2.2c.426,1.738-.4,2.945-1.571,4.039-.249.236-.524.432-.772.655a5.458,5.458,0,0,1-3.855,1.345c-6.441.029-12.881.173-19.332.288a6.121,6.121,0,0,0-.635.079,5.681,5.681,0,0,0-.7-.065l-3.679.059-1.859.033a6.483,6.483,0,0,1-1.653-.026.918.918,0,0,0-.327,0,9.323,9.323,0,0,1-1.123.151,2.945,2.945,0,0,1-1.008-.2,11.6,11.6,0,0,1-1.793-1c-.547-.327-1.073-.687-1.636-.982a1.436,1.436,0,0,0-.717-.2c-.782,0-1.555,0-2.333.029-.471.026-.609-.134-.619-.605,0-2.585-.075-5.181-.118-7.763-.088-5.475-.167-10.944-.278-16.419a1.232,1.232,0,0,1,.74-1.342,16.125,16.125,0,0,0,5.731-5.292,82.941,82.941,0,0,0,5.629-8.957l1.07-1.9c.861-1.555,1.712-3.112,2.556-4.69a2.35,2.35,0,0,0,.223-1.024,1.418,1.418,0,0,0-.075-.416,2.5,2.5,0,0,1-.026-.442l-.016-1.06q0-1.054-.026-2.111l-.069-4.235c-.016-.481-.026-.962-.033-1.437a1.08,1.08,0,0,1,.409-.923,4.283,4.283,0,0,1,5.4-.049c.429.3.586,1,.844,1.538a45.555,45.555,0,0,1,2.857,7.639,13.653,13.653,0,0,1,.069,5.891q-.782,4.543-1.577,9.092c-.072.416-.121.841-.18,1.309a3.133,3.133,0,0,0,.412.029c7.773-.128,15.555-.226,23.335-.389a3.539,3.539,0,0,1,3.551,4.232,4.754,4.754,0,0,1-2.465,3.338Z" transform="translate(-162.027 -61.913)"/><path class="n" d="M283.286,108.973a1.021,1.021,0,0,1,.177-.785,8.836,8.836,0,0,0,2.193-6.49,7.926,7.926,0,0,0-8.051-7.547l-18.295.3a5.067,5.067,0,0,1,.033-.527c.272-1.771.517-3.531.812-5.292a16.762,16.762,0,0,0-.281-7.03,53.22,53.22,0,0,0-3.463-9.121,6.309,6.309,0,0,0-3.227-3.332c-3.086-1.384-6.081-1.443-8.967.481a5.462,5.462,0,0,0-2.759,5.187c.154,2.6.082,5.2.154,7.815a4.294,4.294,0,0,1-.268,1.865c-.259.566-.655,1.021-.907,1.61a15.329,15.329,0,0,1-.749,1.339c-.5.926-1.011,1.843-1.548,2.746a65.341,65.341,0,0,1-4.978,7.884c-.776.982-1.607,1.915-2.441,2.854a.556.556,0,0,1-.867.118,4.438,4.438,0,0,0-2.8-.812q-10.757.16-21.5.327a4.589,4.589,0,0,0-4.634,5.128c.223,2.618.481,5.236.727,7.855.213,2.369.4,4.752.635,7.121.268,2.854.563,5.695.844,8.545.2,1.937.353,3.872.563,5.809a3.118,3.118,0,0,0,.327.808l-.281.036a12.989,12.989,0,0,0,.481,2.981c1.09,2.71,3.2,3.145,5.587,2.909.046,0,.069-.141.118-.223a3.964,3.964,0,0,0,.949.213c5.691-.082,11.4-.164,17.077-.272a4.255,4.255,0,0,0,4.035-2.664,13.378,13.378,0,0,0,.612-2.065,7.847,7.847,0,0,1,.749.363c.74.435,1.492.893,2.183,1.375a3.55,3.55,0,0,0,.471.268,4.944,4.944,0,0,0,1.031.223,5.787,5.787,0,0,0,1.211.154c4.48-.046,8.954-.128,13.438-.2,5.492-.095,11.006-.164,16.524-.295l1.771-.033a5.148,5.148,0,0,0,2.311-.635,22.887,22.887,0,0,0,3.472-2.487,8.251,8.251,0,0,0,2.945-8.637,1.247,1.247,0,0,1,.259-.835c.435-.655.939-1.267,1.374-1.937.1-.151.036-.422.036-.632.432.245.386-.19.455-.363a8.565,8.565,0,0,0,.272-5.2,1.011,1.011,0,0,1,.177-.785A8.374,8.374,0,0,0,283.286,108.973Zm-56.415,27.91c-5.855.092-11.7.173-17.558.291-.655.023-.854-.177-.913-.808-.249-3.053-.53-6.091-.835-9.144-.245-2.674-.55-5.351-.8-8.025-.209-2.314-.4-4.6-.609-6.9-.19-2.1-.376-4.2-.6-6.3-.072-.586.128-.713.694-.713,4.844-.072,9.668-.154,14.515-.236,1.636-.023,3.273-.046,4.929-.036a.8.8,0,0,1,.327.023,1.034,1.034,0,0,1,.458.389,2.644,2.644,0,0,1,.671,1.453,2.139,2.139,0,0,0,.082.494c.033.141.069.259.092.409a8.64,8.64,0,0,1,.023,1.456l.448,26.722C227.8,136.856,227.8,136.856,226.871,136.883Zm54.239-33.941a4.761,4.761,0,0,1-2.464,3.345c-.282.177-.6.3-.88.494-.6.409-.655.808-.118,1.289a4.077,4.077,0,0,1,.095,6.068,12.867,12.867,0,0,1-2.183,1.548c-.763.435-.857.893-.164,1.42a3.083,3.083,0,0,1,1.28,2.124c.046.327.141.671.209.982a5.822,5.822,0,0,1-3.79,4.448c-.763.327-.831.691-.209,1.221a4.039,4.039,0,0,1,1.417,2.193c.425,1.748-.4,2.945-1.571,4.048-.245.236-.517.422-.763.655a5.459,5.459,0,0,1-3.862,1.339c-6.444.036-12.875.177-19.329.295-.213,0-.422.056-.635.069s-.481-.059-.7-.059l-3.685.059-1.852.036a6.085,6.085,0,0,1-1.656-.036,1.081,1.081,0,0,0-.327,0,9.225,9.225,0,0,1-1.126.154,2.9,2.9,0,0,1-1-.2,12.191,12.191,0,0,1-1.8-.982c-.55-.327-1.08-.694-1.636-.982a1.26,1.26,0,0,0-.713-.2c-.776-.023-1.551-.023-2.337.023-.471.023-.612-.141-.612-.612,0-2.579-.082-5.174-.115-7.756-.095-5.482-.177-10.951-.281-16.419a1.248,1.248,0,0,1,.736-1.348,15.945,15.945,0,0,0,5.727-5.292,81.448,81.448,0,0,0,5.636-8.954c.35-.635.713-1.257,1.067-1.892.857-1.561,1.715-3.122,2.559-4.693a2.383,2.383,0,0,0,.223-1.021,1.562,1.562,0,0,0-.072-.422,2.782,2.782,0,0,1-.033-.435V82.379c0-.7,0-1.407-.023-2.114l-.072-4.225c-.023-.481-.023-.982-.033-1.443a1.034,1.034,0,0,1,.38-.933,4.279,4.279,0,0,1,5.4-.059c.432.3.586,1.008.844,1.535a45.267,45.267,0,0,1,2.864,7.629,13.654,13.654,0,0,1,.069,5.891c-.527,3.027-1.054,6.045-1.584,9.085-.069.422-.118.844-.177,1.309a2.707,2.707,0,0,0,.412.033c7.77-.128,15.549-.223,23.331-.386a3.538,3.538,0,0,1,3.551,4.241Z" transform="translate(-161.79 -60.447)"/><path class="h" d="M236.305,215.462c-5.855.095-11.7.177-17.555.295-.655.023-.857-.177-.916-.812-.245-3.05-.527-6.09-.835-9.141-.245-2.677-.55-5.351-.8-8.028-.209-2.311-.4-4.6-.609-6.9-.187-2.1-.376-4.2-.6-6.3-.069-.586.131-.717.694-.717,4.847-.069,9.668-.151,14.515-.232,1.636-.026,3.273-.049,4.932-.036a.684.684,0,0,1,.327.023,1.051,1.051,0,0,1,.458.386,2.664,2.664,0,0,1,.671,1.456,2.137,2.137,0,0,0,.082.494,3.746,3.746,0,0,1,.092.409,8.3,8.3,0,0,1,.026,1.456l.445,26.722C237.241,215.43,237.241,215.43,236.305,215.462Z" transform="translate(-171.267 -138.1)"/><path class="o" d="M202.706,187.289q3.986,1.8,8.123,3.24a8.654,8.654,0,0,0,2.153.537,8.937,8.937,0,0,0,4.7-1.476c.746-.4,1.61-1.021,1.483-1.859a1.489,1.489,0,0,0-1.168-1.1,7.442,7.442,0,0,0-1.689-.092,12.439,12.439,0,0,1-5.711-1.918,18.671,18.671,0,0,1-5.462-4.225,1.938,1.938,0,0,0-.723-.655,1.486,1.486,0,0,0-.812-.026A3.98,3.98,0,0,0,202.706,187.289Z" transform="translate(-161.402 -135.474)"/><path class="h" d="M341.976,114.425a4.769,4.769,0,0,1-2.464,3.345c-.281.173-.6.3-.88.491-.6.412-.654.812-.118,1.293a4.078,4.078,0,0,1,.095,6.068,13.05,13.05,0,0,1-2.183,1.548c-.763.435-.857.89-.164,1.42a3.06,3.06,0,0,1,1.276,2.124c.049.327.141.655.213.982a5.811,5.811,0,0,1-3.79,4.448c-.763.327-.835.694-.213,1.221a4.065,4.065,0,0,1,1.42,2.2c.422,1.748-.4,2.945-1.571,4.048-.249.236-.517.422-.766.655a5.449,5.449,0,0,1-3.859,1.335c-6.444.036-12.875.177-19.329.295-.213,0-.422.059-.635.072a6.651,6.651,0,0,0-.7-.059c-1.234.023-2.455.033-3.685.059l-1.856.033a5.931,5.931,0,0,1-1.653-.033.981.981,0,0,0-.327,0,9.189,9.189,0,0,1-1.129.151,2.867,2.867,0,0,1-.982-.2,11.324,11.324,0,0,1-1.8-1c-.553-.327-1.08-.691-1.636-.982a1.332,1.332,0,0,0-.717-.2c-.772-.023-1.548-.023-2.333.023-.471.026-.612-.141-.612-.609,0-2.582-.082-5.174-.118-7.756q-.137-8.221-.281-16.419a1.242,1.242,0,0,1,.74-1.348,16.009,16.009,0,0,0,5.727-5.3,80.81,80.81,0,0,0,5.632-8.954c.353-.632.717-1.257,1.07-1.888.854-1.561,1.712-3.122,2.556-4.7a2.333,2.333,0,0,0,.223-1.021,1.558,1.558,0,0,0-.069-.422,2.75,2.75,0,0,1-.036-.432v-1.07c0-.7,0-1.407-.026-2.111l-.069-4.225c-.023-.481-.023-.982-.036-1.443a1.05,1.05,0,0,1,.412-.916,4.274,4.274,0,0,1,5.4-.059c.435.3.589,1.011.844,1.538a45.163,45.163,0,0,1,2.821,7.622,13.654,13.654,0,0,1,.072,5.891c-.527,3.027-1.057,6.041-1.584,9.082-.072.422-.118.844-.177,1.309a2.739,2.739,0,0,0,.412.036c7.766-.128,15.549-.223,23.328-.386a3.538,3.538,0,0,1,3.557,4.241Z" transform="translate(-222.529 -71.217)"/><path class="f" d="M167.661,171.57l10.548,6.156,2.176,4.86L164.28,176.24Z" transform="translate(-126.396 -129.023)"/><path class="f" d="M238.98,191.176a10.66,10.66,0,0,1,1.505-1.08c.491-.223,5.678,1.862,5.7,2.422s-.255,2.582-.815,2.772-4.212.746-4.212.746S237.477,192.256,238.98,191.176Z" transform="translate(-187.17 -142.473)"/><path class="d" d="M209.076,119.49s-4.33,1.636-5.492,4.529-10.977,16.108-9.082,18.38a10.255,10.255,0,0,0,3.116,2.081l6.326-3.957-1.352-1.309,6.254-8.859S210.65,121.807,209.076,119.49Z" transform="translate(-157.328 -94.986)"/><path class="p" d="M216.014,236.186a35.692,35.692,0,0,0,8.44-.543,12.673,12.673,0,0,0,7.216-4.143l1.057,1.551a87.382,87.382,0,0,0,28.358,2.693,24.122,24.122,0,0,0,4-.537,28.467,28.467,0,0,0,6.333-2.7l7.416-3.908c1.113.209,1.538,1.636,1.375,2.736a13.559,13.559,0,0,0-.566,3.328,19.808,19.808,0,0,0,.9,2.749,5.384,5.384,0,0,1-1.407,4.781,11.005,11.005,0,0,1-4.369,2.72c-4.2,1.587-8.748,1.941-13.232,2.131-3.829.16-7.661.213-11.491.268a21.881,21.881,0,0,1-6.7-.6c-1.964-.6-3.728-1.744-5.645-2.494a3.411,3.411,0,0,0-1.816-.308,3.622,3.622,0,0,0-1.263.576c-2.186,1.391-4.205,3.093-6.6,4.088-3.407,1.414-7.233,1.263-10.918,1.09-2.945-.137-6.411-.563-7.9-3.122a8.944,8.944,0,0,1-.864-2.6c-.357-1.607-2.873-8.509-1.021-9.246.89-.35,2.913.88,3.862,1.077A26.914,26.914,0,0,0,216.014,236.186Z" transform="translate(-165.657 -168.387)"/><g transform="translate(88.768 84.551)"><circle class="q" cx="28.841" cy="28.841" r="28.841" transform="translate(5.522 3.141)"/><g transform="translate(1 -0.999)"><circle class="r" cx="12.5" cy="12.5" r="12.5" transform="translate(20.522 20.14)"/><path class="r" d="M8,14a6.639,6.639,0,0,0,4.918,2.459A6.639,6.639,0,0,0,17.837,14" transform="translate(20.1 21.221)"/><line class="r" x2="0.012" transform="translate(29.33 29.073)"/><line class="r" x2="0.012" transform="translate(36.707 29.073)"/></g></g></g></g></svg>