<svg xmlns="http://www.w3.org/2000/svg" xmlns:xlink="http://www.w3.org/1999/xlink" width="180" height="180" viewBox="0 0 180 180"><defs><style>.a,.i{fill:#fff;}.a{stroke:#707070;}.b{clip-path:url(#a);}.c,.f{fill:#f77a0c;}.c{opacity:0.24;isolation:isolate;}.d{fill:#3e3e54;}.e{fill:url(#b);}.g{fill:url(#c);}.h{fill:url(#d);}.j{fill:url(#e);}.k{fill:url(#f);}.l{fill:url(#g);}.m{fill:url(#h);}.n{fill:url(#i);}.o{fill:url(#j);}.p{fill:url(#k);}.q{fill:url(#l);}.r{fill:url(#m);}.s{fill:url(#n);}.t{fill:#00244e;}.u{fill:none;stroke:#fff;stroke-linecap:round;stroke-linejoin:round;stroke-width:3px;}</style><clipPath id="a"><rect class="a" width="180" height="180" transform="translate(674 3308)"/></clipPath><linearGradient id="b" y1="0.5" x2="1" y2="0.5" gradientUnits="objectBoundingBox"><stop offset="0" stop-opacity="0"/><stop offset="0.99"/></linearGradient><linearGradient id="c" x1="0.304" y1="0.678" x2="1.065" y2="-0.352" xlink:href="#b"/><linearGradient id="d" x1="0.253" y1="1.413" x2="0.996" y2="-2.05" xlink:href="#b"/><linearGradient id="e" x1="0.892" y1="0.385" x2="-2.307" y2="1.543" xlink:href="#b"/><linearGradient id="f" x1="0.471" y1="0.833" x2="0.864" y2="-1.27" gradientUnits="objectBoundingBox"><stop offset="0" stop-opacity="0"/><stop offset="0.72" stop-opacity="0.51"/><stop offset="0.99"/></linearGradient><linearGradient id="g" x1="-1.052" y1="0.345" x2="6.744" y2="1.162" xlink:href="#b"/><linearGradient id="h" y1="0.5" x2="1.001" y2="0.5" gradientUnits="objectBoundingBox"><stop offset="0" stop-color="#e5c5d5"/><stop offset="0.42" stop-color="#ead4d1"/><stop offset="1" stop-color="#f0e9cb"/></linearGradient><linearGradient id="i" x1="0.067" y1="-0.121" x2="1.207" y2="1.1" xlink:href="#b"/><linearGradient id="j" x1="0.508" y1="0.159" x2="0.443" y2="1.849" xlink:href="#b"/><linearGradient id="k" x1="0" y1="0.5" x2="0.999" y2="0.5" xlink:href="#h"/><linearGradient id="l" x1="0" y1="-0.243" x2="0.897" y2="1.045" xlink:href="#b"/><linearGradient id="m" x1="0.001" y1="0.499" x2="1.001" y2="0.499" xlink:href="#h"/><linearGradient id="n" x1="0.481" y1="0.53" x2="0.392" y2="-0.337" gradientUnits="objectBoundingBox"><stop offset="0.02" stop-color="#fff" stop-opacity="0"/><stop offset="1" stop-color="#fff"/></linearGradient></defs><g class="b" transform="translate(-674 -3308)"><g transform="translate(668.626 3320.977)"><path class="c" d="M120.508,134.886c6.791-3.747,12.758-8.883,19.578-12.543a52.732,52.732,0,0,1,28.177-6.088c2.716.179,5.541.554,8.089-.408a13.573,13.573,0,0,0,5.559-4.64,41.344,41.344,0,0,0,6.033-39.281c-1.764-4.7-4.418-9.113-5.158-14.092-1.7-11.431,7.09-22.407,5.716-33.882-.948-7.9-6.868-14.668-14.129-17.891s-15.667-3.2-23.358-1.272c-8.4,2.1-16.126,6.35-24.452,8.748-15.751,4.513-32.6,2.132-48.846,4.185S43.743,28.7,40.528,44.769c-1.943,9.7,1.9,19.976-.576,29.559-2.081,8.06-8.384,14.61-10.024,22.775-4.374,21.937,20.351,28.1,34.294,36.19C81.278,143.19,102.989,144.557,120.508,134.886Z" transform="translate(-11.073 12.258)"/><path class="d" d="M252.172,217.632a17.4,17.4,0,0,1-.206,7.039c-1.246,3.985-5.117,6.5-8.843,8.371-7.516,3.78-15.638,6.406-23.474,9.5-2.632,1.045-5.577,2.518-6.206,5.274-.282,1.235-.038,2.561-.477,3.742s-2.112,2.047-2.935,1.083a2.512,2.512,0,0,1-.433-1.538l-.341-6.3a20.651,20.651,0,0,1,.3-6.3,7.022,7.022,0,0,1,3.747-4.83c.655-.271,1.359-.412,2.025-.671,2.469-.958,3.98-3.4,5.469-5.594,3.5-5.16,8.122-9.974,14.079-11.729a24.979,24.979,0,0,1-3.281-19.683c.872-3.39,2.637-6.763,5.675-8.5a7.581,7.581,0,0,1,7.668.092c2.707,1.749,3.1,4.911,3.818,7.835A166.287,166.287,0,0,1,252.172,217.632Z" transform="translate(-148.114 -114.831)"/><path class="e" d="M252.172,218.175a17.393,17.393,0,0,1-.206,7.039c-1.246,3.985-5.117,6.5-8.843,8.377-7.516,3.8-15.638,6.411-23.474,9.519-2.632,1.04-5.577,2.512-6.206,5.274-.282,1.229-.038,2.561-.477,3.742s-2.112,2.041-2.935,1.083a2.512,2.512,0,0,1-.433-1.538l-.341-6.3a20.643,20.643,0,0,1,.3-6.3,7.022,7.022,0,0,1,3.747-4.83c.655-.276,1.359-.412,2.025-.671,2.469-.964,3.98-3.4,5.469-5.594,3.5-5.16,8.122-9.974,14.079-11.729a25,25,0,0,1-3.281-19.689c.872-3.39,2.637-6.758,5.675-8.5a7.581,7.581,0,0,1,7.668.092c2.707,1.749,3.1,4.911,3.818,7.835A166.162,166.162,0,0,1,252.172,218.175Z" transform="translate(-148.114 -115.092)"/><path class="d" d="M211.43,182.106a30.426,30.426,0,0,1-3.368,13.933c-1.153,2.236-2.594,4.37-3.249,6.785-4.457,15.947-22.537,24.8-36.031,34.888-5.48,4.094-11.5,8.252-13.949,14.534a3.829,3.829,0,0,1-1.5,2.247c-1.2.606-2.707-.384-3.135-1.625a6.508,6.508,0,0,1,.309-3.861l1.928-6.752a5.268,5.268,0,0,1,.964-2.123,7.544,7.544,0,0,1,1.944-1.316c4.971-2.892,6.536-8.994,9.124-14.019a32.387,32.387,0,0,1,13.218-13.467,15.93,15.93,0,0,0,4.245-2.789,13.131,13.131,0,0,0,2.355-4.695,172.772,172.772,0,0,1,6.547-16.31c.98-2.128,6.644-11.913,8.3-13.618C203.384,169.56,207.315,177.617,211.43,182.106Z" transform="translate(-120.99 -108.491)"/><path class="f" d="M217.924,107.161c0,.688-.049,1.4-.049,2.112,0,2.291-.217,4.814-1.841,6.428-1.24,1.229-3.038,1.657-4.695,2.2-12,3.92-19.667,15.5-30.291,22.315-2.253,1.44-4.873,2.707-7.478,2.41a6.077,6.077,0,0,1-.937-.173c-1.711-.444-3.146-1.587-4.781-2.242-3.249-1.294-6.9-.574-10.175.6s-6.438,2.762-9.882,3.249-7.375-.433-9.3-3.33c-1.04-1.581-1.354-3.525-2.166-5.231-2.967-6.157-11.5-7.668-15.27-13.332-.065-.1-.135-.2-.195-.3a10.288,10.288,0,0,1-1.235-2.946,7.671,7.671,0,0,1-.184-.85,11.431,11.431,0,0,1,.623-6.124l.1-.254a12.454,12.454,0,0,1,7.624-6.844c4.706-1.478,9.785-.179,14.718-.271,5.166-.1,10.337-1.738,15.422-.85,3.964.688,7.581,2.865,11.209,4.651,3.016,1.478,6.065,2.707,9.389,2.6a20.725,20.725,0,0,0,8.436-2.54c4.873-2.393,9.5-5.382,14.62-7.267a23.606,23.606,0,0,1,12.135-1.446C218.021,100.506,218.027,103.533,217.924,107.161Z" transform="translate(-106.902 -74.916)"/><path class="g" d="M210.809,115.919c-1.132,1.332-2.881,1.922-4.489,2.6-7.186,3.059-8.8,12.243-14.149,18.075-3.3,3.59-13.933,7.927-14.079,6.769-.222-1.6-2.707,1.917-4.207,2.485a6.079,6.079,0,0,1-.937-.173c-1.711-.444-3.146-1.587-4.781-2.242-3.249-1.294-6.9-.574-10.175.6s-6.438,2.762-9.882,3.249-7.375-.433-9.3-3.33c-1.04-1.581-1.354-3.525-2.166-5.231-1.971-4.1-6.411-6.135-10.288-8.713a17.089,17.089,0,0,1-5-4.619c-.065-.1-.135-.2-.195-.3a10.29,10.29,0,0,1-1.235-2.946,12.454,12.454,0,0,1,4.4-3.059c4.559-1.89,9.747-1.034,14.62-1.559,5.139-.541,10.148-2.621,15.292-2.166,7.321.628,13.851,6.281,21.118,5.442a21.023,21.023,0,0,0,8.187-3.249c4.662-2.8,9-6.184,13.922-8.507a23.47,23.47,0,0,1,11.967-2.485,5.956,5.956,0,0,1,2.485.726c.043.682.07,1.392.135,2.1C212.287,111.636,212.287,114.17,210.809,115.919Z" transform="translate(-107.2 -78.146)"/><path class="h" d="M201.752,142.989c-3.3,3.59-12.909,9.936-16.721,12.871-1.278.991-4.218.893-5.724,1.462a6.08,6.08,0,0,1-.937-.173c-1.711-.444-3.146-1.587-4.781-2.242-3.249-1.294-6.9-.574-10.175.6s-6.438,2.762-9.882,3.249-7.375-.433-9.3-3.33c-1.04-1.581-1.354-3.525-2.166-5.231-1.971-4.1-6.411-6.135-10.288-8.713a2.123,2.123,0,0,1,2.3-.206c3.823,2.61,8.994,1.744,13.353.19s8.713-3.715,13.326-3.411c5.2.336,9.693,3.758,14.777,4.938a17.652,17.652,0,0,0,11.1-1.083c1.9-.845,10.321-8.875,12-7.651.617.449,7.039-3.4,7.251-2.664C206.051,132.159,201.752,142.415,201.752,142.989Z" transform="translate(-112.633 -89.615)"/><path class="i" d="M312.225,65.51a2.356,2.356,0,0,1,.433,2.567,7,7,0,0,1-1.625,2.209c-5.637,5.778-13.288,11.09-18.914,16.862-2.946,3.027-3.617,3.612-6.736,6.465a48.723,48.723,0,0,0-5.859,5.864c-1.543,2-2.93,7.18-4.067,9.438l-5.7,11.371a75.134,75.134,0,0,1-6.5,11.258,5.144,5.144,0,0,1-1.792,1.706,5.837,5.837,0,0,1-2.253.411c-3.985.227-8.068.888-11.913-.211s-7.359-4.706-6.7-8.664a11.913,11.913,0,0,1,1.624-3.79l6.893-12.156c2.079-3.66,4.153-7.321,6.3-10.944,1.684-2.832,3.46-5.7,6-7.8a30.319,30.319,0,0,1,7.63-4.164c5.669-2.426,11.371-4.576,16.613-7.825a130.422,130.422,0,0,1,16.629-8.751Q307.178,67.232,312.225,65.51Z" transform="translate(-162.492 -59.36)"/><path class="j" d="M311.079,90.662c.7-.666.818-1.727,1.256-2.588a7.705,7.705,0,0,1,3.021-2.707,54.826,54.826,0,0,0,12.07-10.516c-5,1.273-9.379,4.213-13.646,7.1l-7.12,4.819a36.182,36.182,0,0,0-7.873,6.5,1.472,1.472,0,0,0-.374.693c-.092.655.617,1.083,1.142,1.494,2.231,1.738,3.883,2.772,5.014-.455a4.362,4.362,0,0,1,2.318-2.859C308.225,91.452,310.012,91.669,311.079,90.662Z" transform="translate(-189.032 -63.642)"/><path class="k" d="M299.139,119.06a8.041,8.041,0,0,1,2.009,1.04,4.647,4.647,0,0,0,.942.542,1.348,1.348,0,0,0,1.056,0,.39.39,0,0,0,.168-.157.439.439,0,0,0,0-.3,21.912,21.912,0,0,0-1.625-3.7,1.343,1.343,0,0,0-.292-.4,1.3,1.3,0,0,0-.682-.217,8.2,8.2,0,0,0-2.117.049,1.949,1.949,0,0,0-1.083.482,1.848,1.848,0,0,0-.417.888,4.1,4.1,0,0,0-.114,1.717c.336,0,.7-.146,1.056-.146a3.986,3.986,0,0,1,1.1.2Z" transform="translate(-188.36 -82.429)"/><path class="l" d="M271.049,110.826a11.267,11.267,0,0,0-.839,4.332,6.708,6.708,0,0,0,.417,3.195.449.449,0,0,0,.146.2.541.541,0,0,0,.363.033,5.453,5.453,0,0,1,2.031.108.227.227,0,0,1,.119.06.239.239,0,0,1,.06.135l.249,1.289c.953,4.873-.753,10.386-4.722,13.38a22.824,22.824,0,0,1-4.272,2.258,21.728,21.728,0,0,0-7.088,4.825,10.193,10.193,0,0,0-2.8,7.895,29.917,29.917,0,0,0,9.417-7.489c1.846-2.215,3.4-4.722,5.621-6.552a32.552,32.552,0,0,0,3.985-3.189c2.166-2.437,2.431-5.956,2.594-9.205.222-4.549.125-9.839-3.444-12.66A6.892,6.892,0,0,0,271.049,110.826Z" transform="translate(-168.967 -79.502)"/><path class="m" d="M375.548,54.468a3.447,3.447,0,0,1,3.021.146,3.276,3.276,0,0,1,1.083,1.532,4.372,4.372,0,0,1-.347,4.289,6.011,6.011,0,0,1-2.285,1.495,26.888,26.888,0,0,1-5.534,2.047c-1.159.249-2.924.309-3.536-.986-.541-1.148.606-2.415,1.235-3.287A13.515,13.515,0,0,1,375.548,54.468Z" transform="translate(-220.855 -54.171)"/><path class="i" d="M226.313,121.756c-3.114,1.733-6.3,3.688-8.09,6.763-1.668,2.87-1.89,6.346-1.83,9.666a48.115,48.115,0,0,0,1.316,10.868c.1.4.26.845.644.969a1.18,1.18,0,0,0,.834-.157,9.465,9.465,0,0,0,4.987-6.14c.233-.948.319-1.922.493-2.875a31.763,31.763,0,0,1,2-6.151,8.192,8.192,0,0,1,1.343-2.464,7.934,7.934,0,0,1,2.2-1.549q6.742-3.688,13.613-7.148a24.259,24.259,0,0,0,4.8-2.9,7.852,7.852,0,0,0,2.881-4.689c.276-1.836,1.662-5.956-.709-5.8s-7.234,2.22-9.373,3.151C236.13,115.626,231.338,118.946,226.313,121.756Z" transform="translate(-151.425 -79.824)"/><path class="i" d="M251.995,113.469c-.157.926-.4,1.868-.487,2.523a7.873,7.873,0,0,1-2.881,4.684,24.258,24.258,0,0,1-4.8,2.9q-6.861,3.46-13.613,7.148a8.015,8.015,0,0,0-2.2,1.549,7.9,7.9,0,0,0-1.343,2.464,31.884,31.884,0,0,0-2,6.151c-.173.953-.26,1.928-.5,2.875a9.536,9.536,0,0,1-4.982,6.141,1.143,1.143,0,0,1-.834.152c-.384-.119-.541-.574-.639-.964a48.158,48.158,0,0,1-1.321-10.889c-.065-3.325.162-6.79,1.83-9.666,1.792-3.081,4.982-5.036,8.084-6.763,5.047-2.81,9.823-6.13,15.118-8.436,2.166-.926,7.039-2.984,9.373-3.157C252.331,110.079,252.3,111.758,251.995,113.469Z" transform="translate(-151.424 -79.838)"/><path class="f" d="M270.433,107.78a28.377,28.377,0,0,0,4.05,3.341,7.863,7.863,0,0,0,4.976,1.359c.309-.038.677-.146.753-.449s-.217-.59-.466-.791a5.976,5.976,0,0,1-2.464-4.408,4.9,4.9,0,0,0-.19-2.453c-.542-.9-1.754-1.045-2.8-1a20.034,20.034,0,0,0-3.114.39c-.866.179-7.852,3.281-6.974,3.5C264.352,107.309,267.72,105.273,270.433,107.78Z" transform="translate(-173.316 -76.721)"/><path class="n" d="M275.115,103.8a3.539,3.539,0,0,1-.948-.477.936.936,0,0,1-.379-.926,1.121,1.121,0,0,1,.309-.493,7.422,7.422,0,0,1,4.083-1.782c2.139-.406,4.494-.623,6.368.482.238.141.493.363.449.639a.7.7,0,0,1-.255.384c-.785.736-1.722,1.267-2.545,1.955s-1.2,1.8-1.982,2.491C278.737,107.366,276.571,104.388,275.115,103.8Z" transform="translate(-177.738 -75.078)"/><path class="o" d="M256.462,116.26c-.157.926-.4,1.868-.487,2.523a7.873,7.873,0,0,1-2.881,4.684,24.256,24.256,0,0,1-4.8,2.9q-6.861,3.46-13.613,7.148a8.014,8.014,0,0,0-2.2,1.549,7.9,7.9,0,0,0-1.343,2.464,31.883,31.883,0,0,0-2,6.151c-.173.953-.26,1.928-.5,2.875a9.276,9.276,0,0,1-1.96,3.79,53.446,53.446,0,0,1-.541-7.088c-.06-3.319.162-6.8,1.83-9.666,1.787-3.076,4.976-5.03,8.09-6.769,5.047-2.8,9.817-6.124,15.113-8.426C252.363,117.847,254.453,116.959,256.462,116.26Z" transform="translate(-155.891 -82.629)"/><path class="d" d="M207.243,191.528a8.057,8.057,0,0,1,6.211-3.108,7.137,7.137,0,0,1,3.3.309,4.408,4.408,0,0,1,2.707,4.056,2.643,2.643,0,0,1-.542,1.657,1.511,1.511,0,0,1-1.581.542.541.541,0,0,1-.374-.336.6.6,0,0,1,0-.292,4.457,4.457,0,0,0-.168-2.485,2.621,2.621,0,0,0-1.814-1.625,6.872,6.872,0,0,0-2.226.19c-1.083.33-2.94,1.083-3.574,2s-.682,2.475-1.652,3.162c-.655.46-1.706.774-2.166-.227S206.615,192.238,207.243,191.528Z" transform="translate(-146.336 -115.683)"/><path class="i" d="M303.451,115.091c.054.238.076.541-.119.677a.579.579,0,0,1-.585,0c-.91-.417-1.549-1.365-2.529-1.576a11.155,11.155,0,0,0-1.8,0c-.6-.032-1.289-.4-1.305-1a1.667,1.667,0,0,1,.736-1.148c.639-.541,1.224-1.153,1.841-1.722.769-.7.915-.726,1.554.141a13.132,13.132,0,0,1,2.209,4.63Z" transform="translate(-188.438 -79.668)"/><path class="f" d="M291.577,118.184a.488.488,0,0,0-.217.157.428.428,0,0,0-.043.249,3.466,3.466,0,0,0,.736,1.852c.4.541.861,1.04,1.224,1.624a3.492,3.492,0,0,0,1.96-2.994,1.814,1.814,0,0,0-.422-1.337C293.992,116.868,292.406,117.783,291.577,118.184Z" transform="translate(-185.781 -83.14)"/><path class="f" d="M269.963,129.943a8.6,8.6,0,0,1-2.274,5.074,9.6,9.6,0,0,1-3.428,2.047,64.444,64.444,0,0,1-8.122,2.074,18.193,18.193,0,0,0-7.613,3.374c-2.875,2.431-4.332,6.162-5.155,9.828l4.825-.542a2.058,2.058,0,0,0,.823-.211,2.1,2.1,0,0,0,.666-.8,22.566,22.566,0,0,1,6.8-7.581c2.648-1.733,5.734-2.659,8.566-4.061s5.583-3.509,6.525-6.53a13.028,13.028,0,0,0,.476-3.547c.043-1.587,0-3.179-.092-4.765a7.066,7.066,0,0,0-.736-3.14c-.639,1.364-1.424,2.512-1.278,4.028A21.85,21.85,0,0,1,269.963,129.943Z" transform="translate(-163.798 -84.876)"/><path class="p" d="M219.557,177.186a4.1,4.1,0,0,0-1.5,1.971c-.8,1.684-1.624,3.509-1.321,5.35a2.6,2.6,0,0,0,.579,1.338,2.312,2.312,0,0,0,1.939.617,5.957,5.957,0,0,0,1.982-.688,5.21,5.21,0,0,0,2.848-2.6,5.639,5.639,0,0,0-.255-3.33c-.206-.709-.542-2.794-1.229-3.173C222.037,176.374,220.1,176.888,219.557,177.186Z" transform="translate(-151.557 -110.286)"/><path class="d" d="M212.5,196.68a2.924,2.924,0,0,1,1.224.152,2.269,2.269,0,0,1,.893.8,6.677,6.677,0,0,1,1.083,4.332,19.974,19.974,0,0,1-.975,4.44l-3.249,10.83a7.04,7.04,0,0,1-1.43,2.946c-1.229,1.278-3.189,1.43-4.96,1.473-7.375.19-14.756-.135-22.12-.541a16.322,16.322,0,0,1-5.144-.856,3.547,3.547,0,0,1-2.22-2.068,3.9,3.9,0,0,1-.049-1.462,35.645,35.645,0,0,1,.877-4.446,51.578,51.578,0,0,1,3.151-9.985,7.618,7.618,0,0,1,1.933-2.751,6.433,6.433,0,0,1,1.781-.986c3.087-1.186,6.379-.428,9.59-.736q6.314-.606,12.638-.893Q208.993,196.74,212.5,196.68Z" transform="translate(-132.68 -119.497)"/><path class="q" d="M211.039,196.861a2.989,2.989,0,0,1,1.224.152,2.285,2.285,0,0,1,.9.8,6.714,6.714,0,0,1,1.083,4.332,19.985,19.985,0,0,1-.98,4.44l-3.249,10.83a7.039,7.039,0,0,1-1.43,2.946c-1.229,1.278-3.189,1.43-4.96,1.478-7.375.184-14.75-.141-22.12-.541a16.321,16.321,0,0,1-5.144-.856,3.561,3.561,0,0,1-2.22-2.068,3.9,3.9,0,0,1-.043-1.462,35.812,35.812,0,0,1,.872-4.446,51.573,51.573,0,0,1,3.151-9.985,7.663,7.663,0,0,1,1.933-2.751,6.282,6.282,0,0,1,1.781-.98c3.087-1.191,6.379-.433,9.6-.742q6.3-.606,12.633-.893Q207.535,196.931,211.039,196.861Z" transform="translate(-132.014 -119.58)"/><path class="r" d="M294.247,85.371a1.8,1.8,0,0,0,.384-.65,1.762,1.762,0,0,0,0-.693,19.759,19.759,0,0,1-.623-4.408,6.314,6.314,0,0,1,2.036-4.153,7.694,7.694,0,0,1,4.229-1.917,4.6,4.6,0,0,1,2.984.477,5.389,5.389,0,0,1,2.074,3.552,11.933,11.933,0,0,0,1.289,4c.211.319.482.688.368,1.083a1.788,1.788,0,0,1-.282.449c-.823,1.2.157,3.043-.682,4.234a2.372,2.372,0,0,1-.8.666c-1.332.726-2.951.623-4.4,1.083a8.258,8.258,0,0,0-3.541,2.5c-.975,1.083-1.776,2.323-2.659,3.487a3.249,3.249,0,0,1-3.368,1.538,1.625,1.625,0,0,1-1.9-1.316,8.127,8.127,0,0,1-.574-2.513c-.043-1.706.964-2.291,1.993-3.411Q292.59,87.417,294.247,85.371Z" transform="translate(-184.622 -63.013)"/><path class="d" d="M301.479,68.431a5.789,5.789,0,0,0-3.682-.493,6.5,6.5,0,0,0-2.166.617c-1.917.986-2.886,3.211-4.695,4.381a8.729,8.729,0,0,0-1.939,1.3,2.361,2.361,0,0,0-.542,2.079,1.329,1.329,0,0,1-.4,1.727,2.442,2.442,0,0,0-.087,2.843c.747,1.083,2.225,1.359,3.1,2.312.45.487.812,1.18,1.473,1.262a1.754,1.754,0,0,0,1.224-.5,4.2,4.2,0,0,0,1.809-2.837,9.7,9.7,0,0,1,0-1.191,1.164,1.164,0,0,1,.569-.985,1.191,1.191,0,0,1,1.251.319c.336.309.574.709.9,1.023a.146.146,0,0,0,.1.054.141.141,0,0,0,.1-.049,1.386,1.386,0,0,0,.217-1.435,5.568,5.568,0,0,1-.422-1.473,2.361,2.361,0,0,1,.9-1.733c.5-.444,1.083-.78,1.624-1.218a7.062,7.062,0,0,0,2.166-3.179A2.831,2.831,0,0,0,301.479,68.431Z" transform="translate(-184.057 -60.424)"/><path class="i" d="M288.911,109.248c.411.4.926.958.634,1.457s-.894.363-1.4.314a2.865,2.865,0,0,0-2.209.617c-.774.726-.931,2.014-1.852,2.55a23.949,23.949,0,0,1,.043-7.96,5.76,5.76,0,0,1,.3-1.164,6.174,6.174,0,0,1,1.256-1.722,2.285,2.285,0,0,1,2.475-.179s-1.213,1.8-1.143,2.361a6.428,6.428,0,0,0,1.89,3.725Z" transform="translate(-182.324 -76.494)"/><path class="s" d="M170.025,114.043c0,1.354-1.7,2.128-3.032,1.863a16.228,16.228,0,0,1-3.655-1.733c-4.007-1.917-8.707-.374-13.142-.33-5.415.06-10.711-2.2-16.147-2.106a18.909,18.909,0,0,0-10.592,3.509,4.917,4.917,0,0,0-.91.666c-.146.162-1.624,2.924-3.108,5.545a11.431,11.431,0,0,1,.623-6.124l.1-.255a12.454,12.454,0,0,1,7.63-6.839c4.706-1.478,9.785-.179,14.718-.271,5.166-.1,10.337-1.738,15.422-.85,3.964.688,7.581,2.864,11.209,4.651.195.341.368.688.541,1.04A2.945,2.945,0,0,1,170.025,114.043Z" transform="translate(-106.897 -78.317)"/><circle class="t" cx="28.841" cy="28.841" r="28.841" transform="translate(108.153 50.967)"/><g transform="translate(119.718 63.79)"><path class="u" d="M5,13.847a16.6,16.6,0,0,1,21.25,0" transform="translate(1.823 2.546)"/><path class="u" d="M1.42,11.036a24.148,24.148,0,0,1,31.935,0" transform="translate(0 0)"/><path class="u" d="M8.53,16.675a9.055,9.055,0,0,1,10.489,0" transform="translate(3.621 5.092)"/><line class="u" x2="0.015" transform="translate(17.388 27.637)"/></g></g></g></svg>