<svg xmlns="http://www.w3.org/2000/svg" xmlns:xlink="http://www.w3.org/1999/xlink" width="180" height="180" viewBox="0 0 180 180"><defs><style>.a{fill:#fff;stroke:#707070;}.b{clip-path:url(#a);}.c,.e{fill:#f77a0c;}.c{opacity:0.24;isolation:isolate;}.d{fill:url(#b);}.f{fill:url(#c);}.g{fill:#3f3d56;}.h{fill:url(#d);}.i{fill:url(#e);}.j{fill:url(#f);}.k{fill:url(#g);}.l{fill:url(#h);}.m{fill:url(#i);}.n{fill:url(#j);}.o{fill:url(#k);}.p{fill:url(#l);}.q{fill:url(#m);}.r{fill:url(#n);}.s{fill:url(#o);}.t{fill:url(#p);}.u{fill:url(#q);}.v{fill:url(#r);}.w{fill:url(#s);}.x{fill:url(#t);}.y{fill:url(#u);}.z{fill:url(#v);}.aa{fill:#00244e;}.ab{fill:none;stroke:#fff;stroke-linecap:round;stroke-linejoin:round;stroke-width:3px;}</style><clipPath id="a"><rect class="a" width="180" height="180" transform="translate(663 2728)"/></clipPath><linearGradient id="b" x1="0.487" y1="0.672" x2="0.51" y2="-0.197" gradientUnits="objectBoundingBox"><stop offset="0" stop-color="#fff" stop-opacity="0"/><stop offset="0.76" stop-color="#fff" stop-opacity="0.761"/><stop offset="0.99" stop-color="#fff"/></linearGradient><linearGradient id="c" x1="0.467" y1="0.483" x2="0.356" y2="1.371" gradientUnits="objectBoundingBox"><stop offset="0" stop-opacity="0"/><stop offset="0.99"/></linearGradient><linearGradient id="d" x1="0.544" y1="0.194" x2="0.478" y2="1.071" xlink:href="#c"/><linearGradient id="e" x1="0.494" y1="-0.902" x2="0.546" y2="14.345" xlink:href="#c"/><linearGradient id="f" x1="0.473" y1="0.617" x2="0.963" y2="-1.132" xlink:href="#c"/><linearGradient id="g" x1="0.505" y1="0.705" x2="0.385" y2="-2.001" xlink:href="#c"/><linearGradient id="h" y1="0.499" x2="1" y2="0.499" gradientUnits="objectBoundingBox"><stop offset="0" stop-color="#ecc4d7"/><stop offset="0.42" stop-color="#efd4d1"/><stop offset="1" stop-color="#f2eac9"/></linearGradient><linearGradient id="i" x1="0.254" y1="-0.232" x2="4.108" y2="7.245" xlink:href="#h"/><linearGradient id="j" x1="0.274" y1="-2.229" x2="1.11" y2="7.07" xlink:href="#c"/><linearGradient id="k" x1="137.454" y1="0.659" x2="144.729" y2="-0.72" xlink:href="#c"/><linearGradient id="l" x1="-0.001" y1="0.5" x2="1" y2="0.5" xlink:href="#h"/><linearGradient id="m" x1="-0.001" y1="0.5" x2="0.999" y2="0.5" xlink:href="#h"/><linearGradient id="n" x1="0" y1="0.501" x2="1" y2="0.501" xlink:href="#h"/><linearGradient id="o" x1="0" y1="0.498" x2="1" y2="0.498" xlink:href="#h"/><linearGradient id="p" x1="-0.002" y1="0.502" x2="0.999" y2="0.502" xlink:href="#c"/><linearGradient id="q" x1="0" y1="0.501" x2="1" y2="0.501" xlink:href="#c"/><linearGradient id="r" x1="0" y1="0.5" x2="1" y2="0.5" xlink:href="#h"/><linearGradient id="s" x1="-0.245" y1="0.7" x2="7.026" y2="-0.873" xlink:href="#c"/><linearGradient id="t" x1="0.365" y1="1.377" x2="1.535" y2="-6.24" xlink:href="#b"/><linearGradient id="u" x1="0.496" y1="2.218" x2="0.505" y2="-1.688" xlink:href="#b"/><linearGradient id="v" x1="0.26" y1="1.162" x2="0.803" y2="-0.337" xlink:href="#b"/></defs><g class="b" transform="translate(-663 -2728)"><g transform="translate(670.2 2748.619)"><path class="c" d="M185.1,196.575A36.664,36.664,0,0,1,165.406,217c-5.73,2.352-11.925,2.963-18.031,3.473a551.408,551.408,0,0,1-70.19,1.344c-18.382-.819-31.3-8.231-47.694-16.306a49.648,49.648,0,0,1-6.582-3.665C13.691,195.407,9.3,183.13,8.449,171.1c-.064-.909-.1-1.815-.129-2.72A30.564,30.564,0,0,1,9.627,157.57c4.48-12.751,21.172-16.98,24.38-30.182,1.658-6.836-.9-14.362,1.157-21.061,1.916-6.225,7.348-10.258,12.677-13.268a89.749,89.749,0,0,1,73.016-6.875c15.5,5.335,31.048,17.094,33.831,34.619,1.59,10.019-1.146,21.014,3.076,30.072,4.562,9.8,15.889,14.311,23.105,21.539a20.273,20.273,0,0,1,6.034,10.744C187.752,187.658,186.786,192.361,185.1,196.575Z" transform="translate(-16.465 -83.414)"/><path class="d" d="M167.911,328.771a31.628,31.628,0,0,1-17.75,16.818c-5.164,1.936-10.747,2.44-16.25,2.859a543.8,543.8,0,0,1-63.256,1.107c-16.566-.674-28.21-6.777-42.982-13.426a46.136,46.136,0,0,1-5.932-3.018c-8.307-5.3-12.264-15.411-13.032-25.319a4.426,4.426,0,0,1,.942-.213c4.809-.687,9.711-1.368,14.523-.6,2.989.487,5.864,1.53,8.843,2.075,8.391,1.556,16.8-.9,25.215-.361,7.116.455,14.126,1.982,21.336,2.2,7.591.232,15.191-.032,22.779-.378,15.168-.694,30.443-1.782,45.6-.11a31.805,31.805,0,0,0,6.313.323,39.432,39.432,0,0,0,5.015-1c1.6-.365,5.5-1.6,7.129-1.8,3.756,4.38,3.028,5.323,3.478,9.216C170.628,320.844,169.428,325.3,167.911,328.771Z" transform="translate(-8.579 -213.91)"/><path class="e" d="M75.68,298.987a1.724,1.724,0,0,0,.455-1.427,1.388,1.388,0,0,0-.759-.759c-1.8-.884-4.071.027-5.361,1.563a13.74,13.74,0,0,0-2.353,5.487c.129-4.978.2-10.207-2.121-14.612a6.01,6.01,0,0,0-1.992-2.383,2.787,2.787,0,0,0-2.971-.091,3.08,3.08,0,0,0-1.138,2.656c0,1.666.759,3.225,1.237,4.815a41.8,41.8,0,0,1,1.233,8.484,83.421,83.421,0,0,0,2.432,15.265c-.053-.182,2.06-1.609,2.277-2.041.842-1.628.861-3.954,1.666-5.718C70.144,306.124,73.1,302.637,75.68,298.987Z" transform="translate(-54.203 -198.759)"/><path class="f" d="M75.68,298.987a1.724,1.724,0,0,0,.455-1.427,1.388,1.388,0,0,0-.759-.759c-1.8-.884-4.071.027-5.361,1.563a13.74,13.74,0,0,0-2.353,5.487c.129-4.978.2-10.207-2.121-14.612a6.01,6.01,0,0,0-1.992-2.383,2.787,2.787,0,0,0-2.971-.091,3.08,3.08,0,0,0-1.138,2.656c0,1.666.759,3.225,1.237,4.815a41.8,41.8,0,0,1,1.233,8.484,83.421,83.421,0,0,0,2.432,15.265c-.053-.182,2.06-1.609,2.277-2.041.842-1.628.861-3.954,1.666-5.718C70.144,306.124,73.1,302.637,75.68,298.987Z" transform="translate(-54.203 -198.759)"/><path class="g" d="M214.021,55.978a11.356,11.356,0,0,1,7.885.44,11.209,11.209,0,0,1,5.069,3.9A7.722,7.722,0,0,1,228.2,66.5c-.379,1.415-1.21,2.793-.949,4.235a4.666,4.666,0,0,0,2.375,2.9,21.614,21.614,0,0,1,3.278,2.034,5.726,5.726,0,0,1,1.48,6.177,4.888,4.888,0,0,0-.675,2.451,2.619,2.619,0,0,0,1.749,1.8c.816.319,1.7.425,2.519.759a4.933,4.933,0,0,1,1.544,8.181,9.153,9.153,0,0,1-4.113,1.9,52.244,52.244,0,0,1-17.53,1.355c-4.527-.421-9.061-1.438-13.58-.914-2.819.326-5.544,1.248-8.348,1.616s-5.9.1-8.116-1.673a10.393,10.393,0,0,1-2.637-3.464,11.614,11.614,0,0,1-1.4-7.073,6.539,6.539,0,0,1,4.47-5.312,16.611,16.611,0,0,1,3.256-.254,13.569,13.569,0,0,0,6.109-1.84,2.473,2.473,0,0,0,1.29-1.385c.25-1.04-.732-1.9-1.256-2.838a3.68,3.68,0,0,1,2.182-5.119c1.214-.315,2.7-.038,3.555-.956,1.07-1.138.527-2.952,1.681-4.151,1.032-1.07,2.474-1.472,3.3-2.8C210.006,59.5,210.743,57.108,214.021,55.978Z" transform="translate(-131.302 -55.463)"/><path class="h" d="M214.021,55.978a11.356,11.356,0,0,1,7.885.44,11.209,11.209,0,0,1,5.069,3.9A7.722,7.722,0,0,1,228.2,66.5c-.379,1.415-1.21,2.793-.949,4.235a4.666,4.666,0,0,0,2.375,2.9,21.614,21.614,0,0,1,3.278,2.034,5.726,5.726,0,0,1,1.48,6.177,4.888,4.888,0,0,0-.675,2.451,2.619,2.619,0,0,0,1.749,1.8c.816.319,1.7.425,2.519.759a4.933,4.933,0,0,1,1.544,8.181,9.153,9.153,0,0,1-4.113,1.9,52.244,52.244,0,0,1-17.53,1.355c-4.527-.421-9.061-1.438-13.58-.914-2.819.326-5.544,1.248-8.348,1.616s-5.9.1-8.116-1.673a10.393,10.393,0,0,1-2.637-3.464,11.614,11.614,0,0,1-1.4-7.073,6.539,6.539,0,0,1,4.47-5.312,16.611,16.611,0,0,1,3.256-.254,13.569,13.569,0,0,0,6.109-1.84,2.473,2.473,0,0,0,1.29-1.385c.25-1.04-.732-1.9-1.256-2.838a3.68,3.68,0,0,1,2.182-5.119c1.214-.315,2.7-.038,3.555-.956,1.07-1.138.527-2.952,1.681-4.151,1.032-1.07,2.474-1.472,3.3-2.8C210.006,59.5,210.743,57.108,214.021,55.978Z" transform="translate(-131.302 -55.463)"/><path class="e" d="M64.512,338.523c6.595,8.966,18.35,12.6,29.388,14.013,112.565,14.419,128.27-13.125,128.782-13.72,1.852-2.144-25.483-26.3-105.936-20.843C111.119,318.352,60.938,333.663,64.512,338.523Z" transform="translate(-57.237 -217.87)"/><path class="i" d="M137.159,327.63a5.368,5.368,0,0,0-2.022,1.609,2.08,2.08,0,0,0-.023,2.432,3.035,3.035,0,0,0,1.651.808,59.068,59.068,0,0,0,27.767.11c3.7-.884,7.319-2.129,11.087-2.626a52.773,52.773,0,0,1,9.2-.167c11.3.5,22.569,1.518,33.8,2.793,6.375.725,12.8,1.518,19.184.922a2.684,2.684,0,0,0,1.757-.622c1.009-1.066-.216-2.8-1.548-3.415-1.969-.914-4.648-1.3-5.312-3.369a2.755,2.755,0,0,0-.379-.987,1.855,1.855,0,0,0-1.264-.493,397,397,0,0,0-77.66-1.381C147.374,323.721,142.479,324.746,137.159,327.63Z" transform="translate(-100.925 -220.845)"/><path class="e" d="M129.325,263.041s4.686-8.943,25.134-1.916,49.631,19.6,49.631,19.6l-2.341,8.947s-48.139-5.752-54.958-9.589S128.046,275.824,129.325,263.041Z" transform="translate(-97.511 -181.417)"/><path class="j" d="M129.325,263.041s4.686-8.943,25.134-1.916,49.631,19.6,49.631,19.6l-2.341,8.947s-48.139-5.752-54.958-9.589S128.046,275.824,129.325,263.041Z" transform="translate(-97.511 -181.417)"/><path class="e" d="M216.725,287.191s35.572-17.234,52.841-19.169,18.532,1.916,19.173,2.77,7.027,11.926-16.191,17.253-56.446,8.518-56.446,8.518S214.38,294.434,216.725,287.191Z" transform="translate(-151.043 -187.035)"/><path class="k" d="M216.725,287.191s35.572-17.234,52.841-19.169,18.532,1.916,19.173,2.77,7.027,11.926-16.191,17.253-56.446,8.518-56.446,8.518S214.38,294.434,216.725,287.191Z" transform="translate(-151.043 -187.035)"/><path class="l" d="M249.342,123.713a23.378,23.378,0,0,1-4.682,2.208,10.909,10.909,0,0,0,3.453,3.514,13.505,13.505,0,0,0,6.9,1.6,12.692,12.692,0,0,0,4-.482,13.988,13.988,0,0,0,4.625-2.891c.622-.539,1.3-1.256,1.138-2.06a6.284,6.284,0,0,1-6.105-3.711,11.669,11.669,0,0,1-.508-1.635,11.171,11.171,0,0,0-.455-1.9,1.757,1.757,0,0,0-1.518-.467c-1.222.22-2.918-.2-3.794.8C251.376,119.831,250.712,122.848,249.342,123.713Z" transform="translate(-169.143 -94.186)"/><path class="m" d="M264.93,122.391a3.343,3.343,0,0,0,2.148.527c.759-.087,1.351-1.9,1.715-2.569a4.651,4.651,0,0,0,.273-.653,8.319,8.319,0,0,0,.588-2.5c0,.239-1.582.489-1.787.52-.66.1-1.332.133-2,.2-.922.095-2.766.137-2.356,1.468C263.719,120.069,264.334,122.019,264.93,122.391Z" transform="translate(-180.807 -93.774)"/><path class="e" d="M198.443,138.6s-5.153.577-6.538,3.453-21.628,29.076-21.727,30.78,9.585,11.5,9.585,11.5l4.474-9.588-1.385-2.979,8.628-11.93-.341,30.811,18.149,7.247,16.6-6.382.615-31.782s7.243,10.222,7.456,12.78a6.436,6.436,0,0,1-.85,4.049l6.177,8.943s9.585-10.01,8.947-14.7-20.448-28.545-22.345-29.592a73.9,73.9,0,0,0-7.331-2.925Z" transform="translate(-122.922 -106.862)"/><path class="e" d="M207.283,272.842a32.444,32.444,0,0,0-4.584.835c-.516.133-1.1.345-1.267.854-.224.691.5,1.305,1.169,1.6,4.117,1.833,8.936.311,13.39,1.025,3.817.615,7.175,2.838,10.875,3.973a1.517,1.517,0,0,0,.55.1,6.419,6.419,0,0,0,1.241-.1,23.2,23.2,0,0,1,5.2-1.556l7.308-.823c3.054-.345,5.563-1.825,8.6-2.277a14.387,14.387,0,0,0,3.859-.611c.44-.2.888-.713.607-1.1a.862.862,0,0,0-.455-.269,12.653,12.653,0,0,0-4.109-.379C235.563,274.359,221.311,271.324,207.283,272.842Z" transform="translate(-142.292 -190.095)"/><path class="n" d="M207.283,272.842a32.444,32.444,0,0,0-4.584.835c-.516.133-1.1.345-1.267.854-.224.691.5,1.305,1.169,1.6,4.117,1.833,8.936.311,13.39,1.025,3.817.615,7.175,2.838,10.875,3.973a1.517,1.517,0,0,0,.55.1,6.419,6.419,0,0,0,1.241-.1,23.2,23.2,0,0,1,5.2-1.556l7.308-.823c3.054-.345,5.563-1.825,8.6-2.277a14.387,14.387,0,0,0,3.859-.611c.44-.2.888-.713.607-1.1a.862.862,0,0,0-.455-.269,12.653,12.653,0,0,0-4.109-.379C235.563,274.359,221.311,271.324,207.283,272.842Z" transform="translate(-142.292 -190.095)"/><path class="o" d="M318.1,180.63l.357,5.217,6.45,10.013a6.246,6.246,0,0,1,.493,5.828l-.49,1.138,3.328,2.857,3.313-7.316Z" transform="translate(-214.717 -133.137)"/><path class="p" d="M208.757,242.509a7.532,7.532,0,0,1,1.848.949c1.442,1.1,1.916,3.058,2.034,4.872a1.9,1.9,0,0,1-.125.987,1.518,1.518,0,0,1-1.419.679c-1.336,0-2.527-.9-3.859-1.032a20.516,20.516,0,0,1-2.053-.068c-1.579-.323-2.459-1.946-3.415-3.233a11.31,11.31,0,0,0-3.237-2.884c-2.447-1.446-1.138-4.219,1.518-3.681C202.985,239.7,205.96,241.375,208.757,242.509Z" transform="translate(-139.713 -169.377)"/><path class="q" d="M308.815,243.457a5.561,5.561,0,0,0-1.753.622,11.589,11.589,0,0,0-1.9,2c-.539.543-1.229,1.017-1.423,1.757a2.061,2.061,0,0,0,.163,1.351,3.221,3.221,0,0,0,3.65,1.73c.584-.159,1.112-.486,1.692-.649,1.8-.512,3.916.546,5.521-.414a6.292,6.292,0,0,0,1.339-1.279,12.5,12.5,0,0,1,2.982-2.425,1.982,1.982,0,0,0,.721-.569c.379-.6-.034-1.381-.49-1.928-1.332-1.594-2.1-2.151-4.105-1.692C313.068,242.452,310.943,242.96,308.815,243.457Z" transform="translate(-205.777 -171.103)"/><path class="r" d="M178.567,323.156c-3.578.357-7.164-.968-10.746-.63a14.917,14.917,0,0,0-3.772.911,4.314,4.314,0,0,0-1.594.892,3.537,3.537,0,0,0-.759,3.134,7.143,7.143,0,0,0,3.908,4.955,7.282,7.282,0,0,0,3.908.778,12.517,12.517,0,0,0,1.9-.379,18.952,18.952,0,0,0,4.06-1.343c.82-.417,1.575-.949,2.4-1.351,1.169-.569,2.455-.861,3.6-1.465a.759.759,0,0,0,.239-.163.868.868,0,0,0,.156-.3,14.311,14.311,0,0,0,.823-5.02c0-.243.08-.759-.171-.892-.193-.1-1.028.281-1.252.341A16.826,16.826,0,0,1,178.567,323.156Z" transform="translate(-117.613 -221.031)"/><path class="s" d="M327.675,328.133c1.723.436,3.286,1.355,4.993,1.837a16.7,16.7,0,0,0,4.493.52,13.037,13.037,0,0,0,6.644-1.332,2.506,2.506,0,0,0,.816-.687,2.717,2.717,0,0,0-.053-2.546,5.877,5.877,0,0,0-2.99-3.415c-1.707-.664-3.608,0-5.384.429-4.371,1.1-8.966.93-13.387,1.8a.926.926,0,0,0-.941.854,4.034,4.034,0,0,0-.25,1.954c.231.637.861.41,1.415.379A14.038,14.038,0,0,1,327.675,328.133Z" transform="translate(-216.859 -221.007)"/><path class="e" d="M345.606,325.99a5.829,5.829,0,0,1-.546.876,2.216,2.216,0,0,0-.379,1.548,2.478,2.478,0,0,0,1.2,1.518,11.033,11.033,0,0,0,5.722,1.355,15.13,15.13,0,0,0,3.184-.14,17.2,17.2,0,0,0,2.216-.592,5.778,5.778,0,0,0,2.038-.952,3.794,3.794,0,0,0,1.04-1.518,3.51,3.51,0,0,0,.228-2.117,4.269,4.269,0,0,0-.8-1.491,13.917,13.917,0,0,0-1.214-1.415,3.515,3.515,0,0,0-1.138-.842,3.978,3.978,0,0,0-1.613-.171,58.273,58.273,0,0,0-9.293.975,1.412,1.412,0,0,0-.664.258c-.4.345,0,.8.076,1.2a2.5,2.5,0,0,1-.061,1.506Z" transform="translate(-231.201 -220.883)"/><path class="e" d="M175.447,326.8c.357.247.759.417,1.1.683a1.324,1.324,0,0,1,.581,1.1c-.049.524-.539.884-.987,1.138a24.843,24.843,0,0,1-6.617,2.789,9.267,9.267,0,0,1-3.138.38,8.765,8.765,0,0,1-2.508-.687,8.965,8.965,0,0,1-3.7-2.538,4.478,4.478,0,0,1-.861-4.25,6.9,6.9,0,0,1,2.535-2.815,6.289,6.289,0,0,1,1.734-1.028,6.21,6.21,0,0,1,1.9-.228c1.681-.027,3.358-.023,5.039-.023,1.138,0,3.4-.019,3.658,1.465.121.679-.167,1.362,0,2.068A3.2,3.2,0,0,0,175.447,326.8Z" transform="translate(-116.041 -220.443)"/><path class="t" d="M345.606,325.99a5.829,5.829,0,0,1-.546.876,2.216,2.216,0,0,0-.379,1.548,2.478,2.478,0,0,0,1.2,1.518,11.033,11.033,0,0,0,5.722,1.355,15.13,15.13,0,0,0,3.184-.14,17.2,17.2,0,0,0,2.216-.592,5.778,5.778,0,0,0,2.038-.952,3.794,3.794,0,0,0,1.04-1.518,3.51,3.51,0,0,0,.228-2.117,4.269,4.269,0,0,0-.8-1.491,13.917,13.917,0,0,0-1.214-1.415,3.515,3.515,0,0,0-1.138-.842,3.978,3.978,0,0,0-1.613-.171,58.273,58.273,0,0,0-9.293.975,1.412,1.412,0,0,0-.664.258c-.4.345,0,.8.076,1.2a2.5,2.5,0,0,1-.061,1.506Z" transform="translate(-231.201 -220.883)"/><path class="u" d="M175.447,326.8c.357.247.759.417,1.1.683a1.324,1.324,0,0,1,.581,1.1c-.049.524-.539.884-.987,1.138a24.843,24.843,0,0,1-6.617,2.789,9.267,9.267,0,0,1-3.138.38,8.765,8.765,0,0,1-2.508-.687,8.965,8.965,0,0,1-3.7-2.538,4.478,4.478,0,0,1-.861-4.25,6.9,6.9,0,0,1,2.535-2.815,6.289,6.289,0,0,1,1.734-1.028,6.21,6.21,0,0,1,1.9-.228c1.681-.027,3.358-.023,5.039-.023,1.138,0,3.4-.019,3.658,1.465.121.679-.167,1.362,0,2.068A3.2,3.2,0,0,0,175.447,326.8Z" transform="translate(-116.041 -220.443)"/><path class="v" d="M253.17,79.139s-.319,13.421,6.712,12.673,7.35-13.091,7.35-13.091-2.876-7.243-8.947-6.177A5.7,5.7,0,0,0,253.17,79.139Z" transform="translate(-174.39 -65.997)"/><path class="g" d="M252.116,68.1a9,9,0,0,0,9.262,6.644,2.033,2.033,0,0,0,1.791-.96,2.112,2.112,0,0,0,.095-.937,10.833,10.833,0,0,0-1.947-5.733,7.365,7.365,0,0,0-5.111-3.036c-2.944-.277-5.692,1.552-7.691,3.745-1.248,1.377-5.024,7.653-.907,7.851a3.83,3.83,0,0,0,3.225-1.981C251.835,71.955,250.97,69.721,252.116,68.1Z" transform="translate(-169.811 -60.79)"/><path class="w" d="M196.929,125.87l-.357,5.217-8.625,11.926L189.329,146l-1,1.837-4.857-4.216Z" transform="translate(-128.014 -78.111)"/><path class="x" d="M245.71,141.087c.285.759,1.237.971,2.03,1.165,1.518.379,2.952,1.138,4.481,1.518a20.488,20.488,0,0,0,4.868.463c2.064.034,4.132.068,6.192-.08,2.762-.194,5.528-.7,8.283-.425.186-.137-.03-.414-.231-.527-1.434-.812-2.937-1.491-4.42-2.208a6.628,6.628,0,0,0-3.643-.448c-3.737.212-7.483,0-11.224.038A42.678,42.678,0,0,0,245.71,141.087Z" transform="translate(-169.794 -108.228)"/><rect class="e" width="44.163" height="33.565" transform="translate(64.733 51.565)"/><rect class="y" width="44.163" height="2.349" transform="translate(64.931 51.565)"/><rect class="z" width="44.163" height="30.958" transform="translate(64.931 53.959)"/><g transform="translate(-982.199 -3688.619)"><circle class="aa" cx="28.841" cy="28.841" r="28.841" transform="translate(1092 3677)"/><g transform="translate(1109 3692.318)"><path class="ab" d="M18,8h1.261a5.044,5.044,0,1,1,0,10.089H18" transform="translate(4.178 1.659)"/><path class="ab" d="M2,8H22.178V19.35a5.044,5.044,0,0,1-5.044,5.044H7.044A5.044,5.044,0,0,1,2,19.35Z" transform="translate(0 1.659)"/><line class="ab" y2="3.696" transform="translate(6.617 0.682)"/><line class="ab" y2="3.696" transform="translate(11.5 0.682)"/><line class="ab" y2="3.696" transform="translate(16.884 0.682)"/></g></g></g></g></svg>