<svg xmlns="http://www.w3.org/2000/svg" xmlns:xlink="http://www.w3.org/1999/xlink" width="180" height="180" viewBox="0 0 180 180"><defs><style>.a,.q{fill:#fff;}.a{stroke:#707070;}.b{clip-path:url(#a);}.c,.d{fill:#f77a0c;}.c{opacity:0.24;isolation:isolate;}.e{fill:url(#b);}.f{fill:url(#c);}.g{fill:url(#d);}.h{fill:url(#e);}.i{fill:url(#f);}.j{fill:url(#g);}.k{fill:url(#h);}.l{fill:url(#i);}.m{fill:url(#j);}.n{fill:url(#k);}.o{fill:url(#l);}.p{fill:#00244e;}.q{stroke:#00264f;}</style><clipPath id="a"><rect class="a" width="180" height="180" transform="translate(1275 3308)"/></clipPath><linearGradient id="b" x1="0.401" y1="0.148" x2="0.591" y2="1.37" gradientUnits="objectBoundingBox"><stop offset="0" stop-color="#010101" stop-opacity="0"/><stop offset="0.95" stop-color="#010101"/></linearGradient><linearGradient id="c" x1="0.414" y1="0.235" x2="0.785" y2="1.452" xlink:href="#b"/><linearGradient id="d" x1="0.464" y1="0.207" x2="0.54" y2="1.381" xlink:href="#b"/><linearGradient id="e" x1="0.484" y1="0.07" x2="0.54" y2="2.389" xlink:href="#b"/><linearGradient id="f" x1="0.468" y1="1.403" x2="0.697" y2="-4.091" xlink:href="#b"/><linearGradient id="g" x1="1.3" y1="0.301" x2="-3.311" y2="1.45" xlink:href="#b"/><linearGradient id="h" x1="-0.052" y1="0.316" x2="3.147" y2="1.385" xlink:href="#b"/><linearGradient id="i" x1="0.433" y1="1.138" x2="0.536" y2="-0.621" gradientUnits="objectBoundingBox"><stop offset="0" stop-color="#010101" stop-opacity="0"/><stop offset="1" stop-color="#010101"/></linearGradient><linearGradient id="j" x1="0.5" y1="0.347" x2="0.5" y2="3.573" xlink:href="#b"/><linearGradient id="k" x1="0.344" y1="-0.992" x2="0.733" y2="2.732" xlink:href="#b"/><linearGradient id="l" x1="0.345" y1="-0.992" x2="0.734" y2="2.732" xlink:href="#b"/></defs><g class="b" transform="translate(-1275 -3308)"><g transform="translate(1288 3331)"><path class="c" d="M75.871,4.217c-8.757-.675-17.677-1.342-26.251.557s-16.9,6.784-20.688,14.553c-4.914,10.067-1.28,22.3-4.719,32.938-1.891,5.846-5.79,10.822-9.282,15.928C9.322,76.376,4.523,85.372,2.9,95.106s.248,20.388,6.719,27.971c10.356,12.173,28.676,13.365,44.857,13.618l57.281.861c7.418.112,15.14.162,21.848-2.95,10.7-4.991,16.173-16.653,19.721-27.7,3.324-10.35,5.628-21.974.811-31.746-2.711-5.5-7.492-9.952-9.439-15.757-2.489-7.495.242-15.618,0-23.5C143.64.182,100.187,6.09,75.871,4.217Z" transform="translate(-2.344 -3.53)"/><path class="d" d="M296.48,128.953a1.74,1.74,0,0,0-.215-.939,1.649,1.649,0,0,0-.558-.448,23.719,23.719,0,0,0-9.2-3.075,3.036,3.036,0,0,0-1.581.12,3.224,3.224,0,0,0-1.394,1.723L277.28,139.4a1.3,1.3,0,0,0-.166,1.091,1.278,1.278,0,0,0,.413.434,24.523,24.523,0,0,0,17.866,4.589,5.458,5.458,0,0,0,2.5-.83c2.824-2.062.572-4.7-.78-6.63C295.545,135.823,296.575,131.636,296.48,128.953Z" transform="translate(-199.335 -98.464)"/><path class="e" d="M296.48,128.953a1.74,1.74,0,0,0-.215-.939,1.649,1.649,0,0,0-.558-.448,23.719,23.719,0,0,0-9.2-3.075,3.036,3.036,0,0,0-1.581.12,3.224,3.224,0,0,0-1.394,1.723L277.28,139.4a1.3,1.3,0,0,0-.166,1.091,1.278,1.278,0,0,0,.413.434,24.523,24.523,0,0,0,17.866,4.589,5.458,5.458,0,0,0,2.5-.83c2.824-2.062.572-4.7-.78-6.63C295.545,135.823,296.575,131.636,296.48,128.953Z" transform="translate(-199.335 -98.464)"/><path class="d" d="M237.023,141.219a2.178,2.178,0,0,1,.618-.8,2.14,2.14,0,0,1,1.133-.282,47.258,47.258,0,0,1,5.913.194,19.648,19.648,0,0,1,3.8.529,9.793,9.793,0,0,1,2.57,1.119,2.206,2.206,0,0,1,.907.872,2.5,2.5,0,0,1,.148,1.179c-.06,1.5-.138,2.994-.222,4.487-.169,3-.381,6.079-1.6,8.825a2.472,2.472,0,0,1-.6.911,2.259,2.259,0,0,1-.84.388,10.832,10.832,0,0,1-2.5.321,35.3,35.3,0,0,1-8.444-.706,16.117,16.117,0,0,1-3.767-1.186,1.059,1.059,0,0,1-.494-.388,1.084,1.084,0,0,1-.088-.551q.042-3.385.289-6.753a14.164,14.164,0,0,1,.328-3.1,8.1,8.1,0,0,1,.981-1.631C235.823,143.531,236.4,142.359,237.023,141.219Z" transform="translate(-171.19 -108.605)"/><path class="f" d="M237.023,141.219a2.178,2.178,0,0,1,.618-.8,2.14,2.14,0,0,1,1.133-.282,47.258,47.258,0,0,1,5.913.194,19.648,19.648,0,0,1,3.8.529,9.793,9.793,0,0,1,2.57,1.119,2.206,2.206,0,0,1,.907.872,2.5,2.5,0,0,1,.148,1.179c-.06,1.5-.138,2.994-.222,4.487-.169,3-.381,6.079-1.6,8.825a2.472,2.472,0,0,1-.6.911,2.259,2.259,0,0,1-.84.388,10.832,10.832,0,0,1-2.5.321,35.3,35.3,0,0,1-8.444-.706,16.117,16.117,0,0,1-3.767-1.186,1.059,1.059,0,0,1-.494-.388,1.084,1.084,0,0,1-.088-.551q.042-3.385.289-6.753a14.164,14.164,0,0,1,.328-3.1,8.1,8.1,0,0,1,.981-1.631C235.823,143.531,236.4,142.359,237.023,141.219Z" transform="translate(-171.19 -108.605)"/><path class="d" d="M286.119,158.4a2.8,2.8,0,0,1,1.74.208,2.683,2.683,0,0,1,.935,1.278,24.766,24.766,0,0,1,2.1,11.3,253.435,253.435,0,0,1-32.561,1.765c-2.51-.028-1.765-4.759-.706-6.2,1.483-1.973,5.048-2.753,7.215-3.53A89.776,89.776,0,0,1,286.119,158.4Z" transform="translate(-186.132 -120.408)"/><path class="g" d="M286.119,158.4a2.8,2.8,0,0,1,1.74.208,2.683,2.683,0,0,1,.935,1.278,24.766,24.766,0,0,1,2.1,11.3,253.435,253.435,0,0,1-32.561,1.765c-2.51-.028-1.765-4.759-.706-6.2,1.483-1.973,5.048-2.753,7.215-3.53A89.776,89.776,0,0,1,286.119,158.4Z" transform="translate(-186.132 -120.408)"/><path class="d" d="M165.752,158.066a1.059,1.059,0,0,1,1.218-1.218q13.827-1.084,27.7-1.221a1.186,1.186,0,0,1,1.4,1.327q.734,4.829,1.479,9.658A1.025,1.025,0,0,1,196.393,168a210.736,210.736,0,0,1-23.652,1.19c-2.492-.018-5.7.6-6.951-2.065C164.658,164.688,165.537,160.6,165.752,158.066Z" transform="translate(-126.987 -118.639)"/><path class="h" d="M165.752,158.066a1.059,1.059,0,0,1,1.218-1.218q13.827-1.084,27.7-1.221a1.186,1.186,0,0,1,1.4,1.327q.734,4.829,1.479,9.658A1.025,1.025,0,0,1,196.393,168a210.736,210.736,0,0,1-23.652,1.19c-2.492-.018-5.7.6-6.951-2.065C164.658,164.688,165.537,160.6,165.752,158.066Z" transform="translate(-126.987 -118.639)"/><path class="i" d="M152.679,363.385s77.237-1.178,85.9-3.032-4.091-7.128-4.091-7.128a54.443,54.443,0,0,0-10.943-6.46c-5.507-2.171-11.547-2.471-17.463-2.651-13.608-.4-27.57-.745-41.136.579a33.844,33.844,0,0,0-12.263,3.474c-2.408,1.2-13.527,3.557-12,6.485S152.679,363.385,152.679,363.385Z" transform="translate(-111.09 -240.361)"/><path class="d" d="M4.52.135h.534a3.4,3.4,0,0,1,3.4,3.4V43.3a3.4,3.4,0,0,1-3.4,3.4H4.52a3.4,3.4,0,0,1-3.4-3.4V3.532A3.4,3.4,0,0,1,4.52.135Z" transform="matrix(0.836, 0.548, -0.548, 0.836, 64.717, 15.409)"/><path class="d" d="M3.309-.09h.534a3.4,3.4,0,0,1,3.4,3.4V43.075a3.4,3.4,0,0,1-3.4,3.4H3.309a3.4,3.4,0,0,1-3.4-3.4V3.307A3.4,3.4,0,0,1,3.309-.09Z" transform="translate(75.648 22.545) rotate(-36.45)"/><path class="j" d="M4.52.135h.534a3.4,3.4,0,0,1,3.4,3.4V43.3a3.4,3.4,0,0,1-3.4,3.4H4.52a3.4,3.4,0,0,1-3.4-3.4V3.532A3.4,3.4,0,0,1,4.52.135Z" transform="matrix(0.836, 0.548, -0.548, 0.836, 64.717, 15.409)"/><path class="k" d="M3.309-.09h.534a3.4,3.4,0,0,1,3.4,3.4V43.075a3.4,3.4,0,0,1-3.4,3.4H3.309a3.4,3.4,0,0,1-3.4-3.4V3.307A3.4,3.4,0,0,1,3.309-.09Z" transform="translate(75.648 22.545) rotate(-36.45)"/><path class="d" d="M220.458,268.171H161.827L154.82,214.5h75.339Z" transform="translate(-119.426 -155.488)"/><path class="l" d="M230.165,214.48l-9.7,53.675H161.837L154.83,214.48Z" transform="translate(-119.433 -155.475)"/><path class="d" d="M222.934,261.076v35.347H213V261.076a4.963,4.963,0,0,1,9.923,0Z" transform="translate(-157.898 -183.743)"/><path class="d" d="M284.013,261.076v35.347H274.09V261.076a4.963,4.963,0,0,1,9.923,0Z" transform="translate(-197.423 -183.742)"/><rect class="d" width="91.828" height="16.168" rx="8.084" transform="translate(27.31 48.662)"/><rect class="m" width="91.828" height="16.168" rx="8.084" transform="translate(27.31 48.662)"/><circle class="n" cx="2.909" cy="2.909" r="2.909" transform="translate(77.861 20.481)"/><circle class="o" cx="2.909" cy="2.909" r="2.909" transform="translate(63.74 18.434)"/><g transform="translate(-2 -9)"><circle class="p" cx="28.841" cy="28.841" r="28.841" transform="translate(85.249 68.582)"/><path class="q" d="M329.9,298.3a2.173,2.173,0,0,1-1.534-.636l-7.023-7.015a2.17,2.17,0,0,1,3.068-3.066l5.381,5.381,10.985-12.6a2.17,2.17,0,1,1,3.27,2.85l-12.515,14.347a2.158,2.158,0,0,1-1.569.74A.45.45,0,0,1,329.9,298.3Z" transform="translate(-218.07 -191.358)"/></g></g></g></svg>