<svg xmlns="http://www.w3.org/2000/svg" width="58" height="58" viewBox="0 0 58 58"><defs><style>.a{fill:#00244e;}.b{fill:none;stroke:#fff;stroke-linecap:round;stroke-linejoin:round;stroke-width:3px;}</style></defs><g transform="translate(-1092 -3677)"><circle class="a" cx="29" cy="29" r="29" transform="translate(1092 3677)"/><g transform="translate(1104.879 3690.628)"><path class="b" d="M22.994,23.248V20.5A5.5,5.5,0,0,0,17.5,15H6.5A5.5,5.5,0,0,0,1,20.5v2.749" transform="translate(0 4.496)"/><circle class="b" cx="5.5" cy="5.5" r="5.5" transform="translate(6.121 3.372)"/><path class="b" d="M24.124,23.2V20.45A5.5,5.5,0,0,0,20,15.13" transform="translate(7.118 4.544)"/><path class="b" d="M16,3.13a5.5,5.5,0,0,1,0,10.653" transform="translate(5.62 0.049)"/></g></g></svg>