<svg xmlns="http://www.w3.org/2000/svg" width="9.955" height="16.694" viewBox="0 0 9.955 16.694"><defs><style>.a{fill:#464c4f;}</style></defs><g transform="translate(-112.2)"><g transform="translate(112.2)"><path class="a" d="M118.326,2.757a1.378,1.378,0,1,0-1.378-1.378A1.373,1.373,0,0,0,118.326,2.757ZM118.4,7.5h3.752V6.126H119.4L117.867,3.6a1.423,1.423,0,0,0-1.149-.689.69.69,0,0,0-.383.077l-4.135,1.3V8.271h1.378V5.437l1.608-.536L112.2,16.694h1.378l2.221-6.2,1.761,2.374v3.829h1.378v-4.9l-1.914-3.446.536-2.221Z" transform="translate(-112.2)"/></g></g></svg>