<svg xmlns="http://www.w3.org/2000/svg" xmlns:xlink="http://www.w3.org/1999/xlink" width="521" height="100" viewBox="0 0 521 100">
  <defs>
    <clipPath id="clip-path">
      <rect id="Rectangle_659" data-name="Rectangle 659" width="100" height="100" transform="translate(-0.217)" fill="#f2f2f2"/>
    </clipPath>
    <clipPath id="clip-path-4">
      <rect id="Rectangle_909" data-name="Rectangle 909" width="100" height="100" fill="#f2f2f2"/>
    </clipPath>
  </defs>
  <g id="Group_2324" data-name="Group 2324" transform="translate(-1127 -2103)">
    <g id="Mask_Group_50" data-name="Mask Group 50" transform="translate(1443.217 2103)" clip-path="url(#clip-path)">
      <path id="star" d="M42.747,2,55.338,27.508l28.156,4.115L63.121,51.467,67.929,79.5,42.747,66.259,17.566,79.5l4.808-28.034L2,31.623l28.156-4.115Z" transform="translate(6.799 8.406)" fill="#f2f2f2"/>
    </g>
    <g id="Mask_Group_82" data-name="Mask Group 82" transform="translate(1548.217 2103)" clip-path="url(#clip-path)">
      <path id="star-2" data-name="star" d="M42.747,2,55.338,27.508l28.156,4.115L63.121,51.467,67.929,79.5,42.747,66.259,17.566,79.5l4.808-28.034L2,31.623l28.156-4.115Z" transform="translate(6.799 8.406)" fill="#f2f2f2"/>
    </g>
    <g id="Mask_Group_80" data-name="Mask Group 80" transform="translate(1232.217 2103)" clip-path="url(#clip-path)">
      <path id="star-3" data-name="star" d="M42.747,2,55.338,27.508l28.156,4.115L63.121,51.467,67.929,79.5,42.747,66.259,17.566,79.5l4.808-28.034L2,31.623l28.156-4.115Z" transform="translate(6.799 8.406)" fill="#f2f2f2"/>
    </g>
    <g id="Mask_Group_79" data-name="Mask Group 79" transform="translate(1338 2103)" clip-path="url(#clip-path-4)">
      <path id="star-4" data-name="star" d="M42.747,2,55.338,27.508l28.156,4.115L63.121,51.467,67.929,79.5,42.747,66.259,17.566,79.5l4.808-28.034L2,31.623l28.156-4.115Z" transform="translate(6.831 8.406)" fill="#f2f2f2"/>
    </g>
    <g id="Mask_Group_81" data-name="Mask Group 81" transform="translate(1127 2103)" clip-path="url(#clip-path-4)">
      <path id="star-5" data-name="star" d="M42.747,2,55.338,27.508l28.156,4.115L63.121,51.467,67.929,79.5,42.747,66.259,17.566,79.5l4.808-28.034L2,31.623l28.156-4.115Z" transform="translate(6.831 8.406)" fill="#f2f2f2"/>
    </g>
  </g>
</svg>
