<svg xmlns="http://www.w3.org/2000/svg" xmlns:xlink="http://www.w3.org/1999/xlink" width="24" height="24" viewBox="0 0 24 24"><defs><style>.a{fill:#00244e;}.b{clip-path:url(#a);}</style><clipPath id="a"><rect class="a" width="24" height="24"/></clipPath></defs><g class="b"><path class="a" d="M21,22H3a1,1,0,0,1-1-1V3A1,1,0,0,1,3,2H21a1,1,0,0,1,1,1V21A1,1,0,0,1,21,22ZM4,20H20V4H4Z"/></g><g class="b"><path class="a" d="M18,11H6a1,1,0,0,1-1-1V7A1,1,0,0,1,6,6H18a1,1,0,0,1,1,1v3A1,1,0,0,1,18,11ZM7,9H17V8H7Z"/></g><g class="b"><path class="a" d="M18,18H11a1,1,0,0,1-1-1V14a1,1,0,0,1,1-1h7a1,1,0,0,1,1,1v3A1,1,0,0,1,18,18Zm-6-2h5V15H12Z"/></g></svg>