<svg xmlns="http://www.w3.org/2000/svg" xmlns:xlink="http://www.w3.org/1999/xlink" width="1920" height="1837" viewBox="0 0 1920 1837"><defs><style>.a{fill:#f2f2f2;}.b{opacity:0.15;clip-path:url(#a);}.c,.d{fill:none;stroke-linecap:round;stroke-linejoin:round;stroke-width:3px;}.c{stroke:#b3b3b3;}.d{stroke:#f77a0c;}</style><clipPath id="a"><path class="a" d="M0,0H1920V1226H0Z" transform="translate(402.396 3268)"/></clipPath></defs><g transform="translate(0 -2577)"><rect class="a" width="1920" height="1837" transform="translate(0 2577)"/><g transform="translate(0 4)"><path class="a" d="M0,0H1920V1655.254H0Z" transform="translate(0 2667.873)"/><g class="b" transform="translate(-402.396 -385)"><g transform="translate(91.319 3039.658)"><path class="c" d="M341.954,104.384c.021,20.408-2.205,40.855-1.729,61.137,1.472,62.907,2.991,125.841,1.318,188.706-1.339,50.258-1.881,100.511-2.978,150.762-1.281,58.706,2.25,117.4.01,176.052-1.881,49.239,1.428,98.4.238,147.6-.485,20.028-.726,40.061-1.077,60.089" transform="translate(232.601 -46.401)"/><path class="c" d="M1541.99,259.739c-35.938.5-71.708,3.822-107.547,6.1-12.633.8-25.3,1.21-37.947,2.2-31.948,2.5-63.965,4.094-95.919,6.53-27.438,2.093-54.89,4.306-82.218,7.47-22.857,2.646-45.839,4.044-68.584,8.039-16.661,2.926-33.722,3.513-50.557,5.55-27.433,3.324-54.811,7.109-82.241,10.451-24.578,3-49.289,5.016-73.765,8.66-23.512,3.5-47.222,5.165-70.734,8.827a305.89,305.89,0,0,1-34.715,3.659,33.045,33.045,0,0,0-21.086,8.414" transform="translate(1008.194 205.179)"/><path class="c" d="M1649.581,118.068c-12.576.144-23.952,5.613-35.763,8.749-40.627,10.781-81.015,22.519-121.286,34.581-37.049,11.1-73.434,24.667-110.895,34.01-18.437,4.6-36.671,9.7-54.577,15.659-47.66,15.853-94.987,32.719-142.39,49.344-82.956,29.1-165.446,59.612-248.962,87C884.623,364.162,834.5,383.286,784,401.486c-29.887,10.771-60.38,19.86-90.613,29.659-1.365.443-2.9-.416-4.249,1.048-9.032,9.794-21.28,7.471-32.64,8.471" transform="translate(748.794 -24.241)"/><path class="c" d="M1338.4,531.005c-30.574,10.19-61.071,20.612-91.734,30.524-63.554,20.541-127.234,40.692-190.791,61.228-62.6,20.227-125.325,40.108-187.58,61.354-34.717,11.85-69.23,24.263-104.477,34.458-9.32,2.7-18.951,4.306-28.439,6.415" transform="translate(876.54 644.464)"/><path class="c" d="M1342.5,535.432c-33.033,12.3-66.03,24.7-99.107,36.873-48.189,17.744-96.388,35.383-145.4,50.861-50.549,15.965-101.834,29.109-152.917,43.068Q885.224,682.59,826.884,703.84c-23.865,8.723-47.859,17.417-72.631,23.514-1.158.285-2.121,1.352-3.177,2.056" transform="translate(901.958 651.633)"/><path class="c" d="M362.691,227.138c25.3,2.109,50.57,5.11,75.915,6.048,20.767.765,41.572,3.806,62.153,2.74,12.026-.623,23.933.178,35.88-.3,9.482-.377,17.5,5.317,27.37,5.886,17.545,1.014,35.168,2.944,52.749,4.613,26.351,2.5,52.776,4.073,79.111,6.978,13.251,1.462,26.932,1.111,39.956,3.851,17.146,3.607,34.539,5.074,51.746,7.973,14.983,2.525,30.215,3.523,45.3,5.475,14.784,1.912,29.473,5.338,44.3,6,20.065.893,39.244,6.577,59,8.908,3.248.383,9.228-.752,8.455,6.135" transform="translate(273.011 152.385)"/><path class="c" d="M988.341,466.207c-3.1,3.324-7.366,5.713-6.4,11.609,3.452,21.112-1.6,42.127-1.056,63.242.469,18.354,2.046,20.135,20.088,24.329,33.644,7.819,68.144,11.62,101.24,22.011,40.624,12.756,81.151,25.767,122.195,37.242,38.79,10.847,77.2,22.8,117.052,29.518,9.875,1.666,19.494,5.561,29.568,7.08" transform="translate(1274.039 539.531)"/><path class="c" d="M1288.973,273.423c-17.445.254-34.442,4.173-51.66,6.3-15.1,1.865-30.225,3.481-45.326,5.307-22.849,2.761-45.669,5.744-68.534,8.377-17.191,1.98-34.455,3.355-51.644,5.367-19,2.226-37.9,5.886-56.953,7.043-19.418,1.181-38.631,3.864-57.962,5.6-23.21,2.088-46.374,4.71-69.587,6.745-17.544,1.54-35.131,2.622-52.71,3.7-7.358.453-13.98-1.255-17.919-8.385" transform="translate(1008.194 227.339)"/><path class="c" d="M475.484,499.209c4.351,6.677,2.284,13.2.073,20.054-16.651,51.615-32.716,103.421-49.721,154.916q-33.134,100.352-67.489,200.3c-15.2,44.139-31.493,87.9-47.332,131.815-6.978,19.347-13.8,38.757-21.366,57.873a25.484,25.484,0,0,0-1.818,7.494" transform="translate(151.784 592.974)"/><path class="c" d="M966.961,260.109c-26.707-2.109-53.43-4.055-80.119-6.37-30.238-2.622-60.471-5.328-90.657-8.476-20.73-2.161-41.394-4.8-62.2-6.386-23.947-1.826-47.759-5.883-71.716-6.86-17.277-.7-34.4-3.028-51.644-3.455-33.088-.82-65.993-4.628-99.076-5.875-11.18-.424-22.5-.99-33.753-1.585" transform="translate(459.414 142.609)"/><path class="c" d="M988.621,503.234c-7.651,10.035-6.823,22.267-8.261,33.756-1.48,11.853-1.734,23.868-2.237,35.825-.474,11.284,1.818,13.8,13.658,16.882,23.365,6.08,46.093,13.794,67.5,25.23,31.037,16.578,65.568,24.046,97.986,37.022,39.846,15.952,82.513,23.258,122.168,39.309,34,13.762,69.665,22.482,103.4,36.684,9.223,3.882,17.636,9.681,26.422,14.6" transform="translate(1269.541 599.492)"/><path class="c" d="M536.744,415.093c-8.785,25.652-17.8,51.227-26.3,76.976-14.6,44.215-27.64,88.994-43.862,132.6-6.747,18.137-16.376,35.351-22.736,53.941q-33.766,98.738-68.484,197.154c-15.507,43.872-37.855,84.7-57.957,126.509-7.35,15.294-15.4,30.251-23.132,45.362" transform="translate(162.211 456.758)"/><path class="c" d="M364.6,209.832c1.391,15.79-4.977,31.752,1.053,47.44-3.822,41.748-3.9,83.632-2.868,125.448.655,26.72,1.291,53.454.537,80.122-1.54,54.478-.1,108.948-.985,163.408-.141,8.762-2.824,17.448-1.954,26.359" transform="translate(268.993 124.36)"/><path class="c" d="M818.337,366.754c-32.721-3.382-65.349,1.239-98.041,1.409-34.8.181-69.647,2.326-104.357,5.1C558,377.9,499.99,377.119,441.978,377.3" transform="translate(401.408 376.479)"/><path class="c" d="M952.57,371.96c-7.73-2.863-15.451.375-23.195.037-40.868-1.784-81.565,2.449-122.265,4.626-35.529,1.9-71.14,4.136-106.528,8.83-19.522,2.591-39.437,2.177-58.986,4.618-33.649,4.2-67.541,4.809-101.266,7.843-17.422,1.566-35.108,1.784-52.678,2.454-16.154.618-32.326.76-48.493,1.111" transform="translate(396.844 384.978)"/><path class="c" d="M549.84,476.671a14.239,14.239,0,0,0,1.068,2.1C592.992,536.5,635.09,594.19,681.53,648.587c25.589,29.971,53.063,58.478,75.8,90.725,24.957,35.4,50.863,70.1,76.1,105.286" transform="translate(576.078 556.476)"/><path class="c" d="M1040.856,480.7c6.983,8.167,17.516,7.463,26.419,9.152,62.011,11.758,123.344,26.223,183.292,45.913,29.722,9.763,60.38,14.433,90.749,20.822,5.595,1.176,11.242,2.127,16.864,3.18" transform="translate(1371.224 562.994)"/><path class="c" d="M1639.932,529.67c-35.4,4.01-70.087,11.808-104.317,21.267-44.464,12.285-89.017,24.117-133.914,34.71-19.821,4.676-39.325,10.677-59.091,15.591-7.512,1.87-14.543,6.711-23.449,1.679-3.541-2-10.336,1.315-15.517,2.7-65.791,17.631-132.787,31.524-196.912,54.4C1054.072,678.8,999.57,691.561,947.5,711.5c-29.633,11.347-55.206,4.233-81.361-7.9-12.79-5.933-21.964-16.725-32.5-25.5-36.541-30.445-75.292-58.046-111.953-88.31C687.9,561.891,651.293,537.6,618.326,508.649c-5.372-4.717-11.284-9.178-18.922-9.479-4.482-.178-7.353-2.708-10.6-5.27-10.035-7.929-20.324-15.536-30.516-23.265" transform="translate(589.765 546.7)"/><path class="c" d="M430.708,235.188c4.178,18.771,3.735,37.971,3.953,56.93.663,57.645,4.689,115.211,3.52,172.893-.542,26.7-.092,53.415-.092,80.119" transform="translate(383.157 165.421)"/><path class="c" d="M969.525,393.129c-22.1-2.761-44.3-1.15-66.412-.741-17.2.32-34.44,1.2-51.654,1.957-34.466,1.511-68.945,2.722-103.361,5.723-12.89,1.126-25.9,2.546-38.966,2.732a217.565,217.565,0,0,0-32.638,3.253,20.9,20.9,0,0,1-9.534-.275" transform="translate(765.739 418.63)"/><path class="c" d="M735.488,263.858c-19.329-2.811-38.581-6.483-58.009-8.136-13.411-1.142-26.776-2.221-40.035-4.513-10.189-1.763-20.374-3.568-30.576-5.257-10.407-1.726-12.859,1.05-13.825,11.57-3.78,41.085-1.43,82.241-1.9,123.358-.411,35.838-.451,71.693.065,107.528.267,18.621-1.6,37.292.9,55.877" transform="translate(642.392 182.082)"/><path class="c" d="M225.85,118.873c4.851,26.492,5.231,53.354,6.234,80.124,2.224,59.368.731,118.776,1.171,178.163.071,9.681-1.255,18.962-6.349,27.409" transform="translate(51.412 -22.938)"/><path class="c" d="M564.425,411.873c-23.158,2.219-46.444,3.17-69.623,4.521-12.162.71-24.57,1.875-36.852,1.653-14.8-.267-29.437,1.941-44.289,1.425-26.7-.93-53.333,2.942-80.117,2.035-17.9-.608-35.87-.927-53.763.909" transform="translate(138.748 451.543)"/><path class="c" d="M585.293,250.482c.351,18.624,1.045,37.25.988,55.874-.149,47.089-.356,94.183-1.105,141.264-.369,23.205-2.033,46.387-3,69.584-.147,3.515-.684,7.159,1.006,10.54" transform="translate(628.126 190.188)"/><path class="c" d="M1036.831,264.568c.7,19.328,1.1,38.675,2.394,57.964.23,3.46.689,7.067.7,10.561.1,52.71-.534,105.43.233,158.133.859,58.721-3.039,117.343-2.669,176.06.115,18.257.044,36.546.4,54.819" transform="translate(1364.706 212.999)"/><path class="c" d="M417.768,418.926c4.092,1.456,9.477-4.849,12.626,3.164-10.5,9.079-24.253,13.587-36.892,19.991C320.381,479.135,251.347,523.3,180.671,564.59c-8.961,5.233-17.152,11.884-26.461,16.688" transform="translate(-64.601 461.357)"/><path class="c" d="M347.4,655.828c3.162-12.652,5.679-25.508,9.618-37.91,9.076-28.6,18.9-56.953,28.289-85.45,1.915-5.81,3.887-11.476,8.744-16.046,5.276,3.232,6.145,8.275,6.093,13.953-.411,44.98-.176,89.973-1.255,134.938-.956,39.728-3.348,79.423-5.105,119.133" transform="translate(248.244 620.847)"/><path class="c" d="M439.2,315.308c-21.07-5.032-40.946-13.608-61.082-21.256-38.049-14.454-72.337-36.609-108.6-54.745-25.667-12.84-52.867-21.249-80.235-29.193-4.875-1.417-10.852-1.64-15.748,1.878" transform="translate(-33.316 123.253)"/><path class="c" d="M456.026,483.513c.11,3.552-.375,6.771-3.13,9.521-16,15.978-32.41,31.59-48.878,47.034-12.515,11.74-29.662,17.27-46.075,22.39-49.339,15.392-98.387,31.786-149.614,40.454-17.217,2.913-34.272,5.325-51.7,5" transform="translate(-60.69 567.556)"/><path class="c" d="M977.668,624.249c23.428-.283,43.086-12.594,64.385-19.8,21.788-7.368,44.2-12.88,66.338-19.213a10.254,10.254,0,0,0,3.138-1.082c13.519-9.645,26.781-3.94,40.09.55,7.227,2.439,13.974,3.6,22.241,2.24A29.778,29.778,0,0,1,1202.21,597.9a38.457,38.457,0,0,0,13.639,10.69c24.405,11.884,49.918,21.068,74.938,31.443,19.933,8.267,37.575,20.528,55.835,31.7,24.976,15.279,51.688,24.662,81.2,25.288,8.086.173,16.167.676,24.248,1.027" transform="translate(1268.898 722.005)"/><path class="c" d="M496.362,446.486c-17.712,16.832-38.78,28.881-60.22,39.809-31.763,16.188-61.113,35.836-89.489,57.171-32.3,24.284-65.191,47.822-96.836,72.934C216.375,642.94,177.482,660.393,142,683.472a56.208,56.208,0,0,1-22,8.12" transform="translate(-120 507.595)"/><path class="c" d="M1296.994,82.248c-18.273,5.624-36.514,11.35-54.824,16.851q-82.734,24.851-165.53,49.5c-10.129,3-19.936,7.232-30.552,8.5" transform="translate(1379.697 -82.248)"/><path class="c" d="M750.545,401.811c-19,5.071-38.636,4.408-57.985,6.289-34.259,3.329-68.893,3.926-102.227,13.838-7.227,2.148-14.616,4.655-21,8.534-10.724,6.52-12.615,18.155-12.5,29.319.113,11.038-3.829,21.639-2.415,32.69.372,2.913-.277,5.3-4.175,3.683" transform="translate(576.731 435.249)"/><path class="c" d="M990.616,523.358c-11,9.163-25.191,10.2-38,14.627-28.389,9.81-57.328,17.9-86.414,25.387q-44.194,11.383-88.567,22.082c-4.728,1.147-9.445-.561-13.681-3.06" transform="translate(922.814 632.081)"/><path class="d" d="M849.279,412.275c10.357,2.871,21.154,2.729,31.682,5.021,22.312,4.862,44.9,8.492,67.426,12.327,18.936,3.222,37.981,5.8,56.909,9.071,18.673,3.227,37.551,5.888,55.793,10.823,14.514,3.924,28.206,10.9,42.261,16.523" transform="translate(1060.986 452.194)"/><path class="c" d="M279.646,264.568c-3.974,20.19-3.974,40.831-4.71,61.165-.851,23.525-3.156,47.01-2.821,70.616q.5,35.3-1.024,70.627c-2.161,48.134-1.962,96.281-1.983,144.433-.021,41.117.086,82.231-.079,123.347-.037,8.5.658,16.882-2.638,25.474-2.069,5.4.251,12.479.6,18.8" transform="translate(115.691 212.999)"/><path class="c" d="M650.436,252.494c.029,10.894-.833,21.717-.346,32.7a443.8,443.8,0,0,1-1.024,58.991c-1.608,18.056.87,35.857.618,53.8-.278,19.659,1.8,39.354,2.86,59.033" transform="translate(735.878 193.447)"/><path class="c" d="M658.3,254.909c.3,52.757-2.109,105.441-4.154,158.138-.545,14.04,2.412,28.109-.063,42.167" transform="translate(744.88 197.357)"/><path class="c" d="M179.163,228.346c9.841,3.162,19.517,7.03,29.549,9.356,30.5,7.07,57.221,23.616,86.435,33.816,28.915,10.1,55.612,25.479,84.441,35.548,12.5,4.369,17.539,8.33,16.413,23.593-2.371,32.156-.851,64.607-.676,96.936.123,22.844,1.48,45.706.825,68.521-1.1,38.309-.3,76.617-.985,114.913-.437,24.609-1.6,49.226-3.2,73.788-.878,13.411-3.358,26.718-5.116,40.071" transform="translate(-24.192 154.342)"/><path class="c" d="M1126.914,122.9c-22.171,4.576-43.7,11.507-65.349,17.972-41.111,12.277-82.005,25.246-122.3,40.032-3.245,1.192-6.91,1.493-9.5,4.2" transform="translate(1191.339 -16.42)"/><path class="c" d="M1233.147,508.159c-14.056-3.515-28.305-6.412-42.112-10.724-12.89-4.023-26.087-.4-39.137-3.751-32.153-8.262-64.934-13.49-97.928-17.487-5.742-.694-9.723,2.813-14.807,2.619a40.122,40.122,0,0,0-.521,4.039" transform="translate(1367.639 555.562)"/><path class="d" d="M1281.765,378.152c-13.409,14.331-30.346,12.7-47.443,10.561-13.3-1.663-26.576-3.851-40.061-2.14-.865.11-1.991.369-2.6-.037-23.792-15.91-53.926-12.086-78.553-25.293-2.627-1.409-4.794-.479-7.426-.152-17.173,2.135-34.615,2.614-51.581,5.739-21.7,3.995-43.982.246-65.427,6.006a11.663,11.663,0,0,1-4.2.023q-27.417-3.116-54.818-6.328c-1.428-.168-2.884-1.153-4.209-.959-26.047,3.782-49.03-7.329-72.772-14.9-7.7,7.921-11.054,18.532-16.392,27.747-11.169,19.286-22.752,38.306-35.521,56.471-7.966,11.337-9.147,25.728-18.6,36.134-3.091,3.405-.608,6.465,3.083,7.738,4.461,1.538,9.115,3.6,13.678,3.581,22.034-.115,42.355,7.646,63.264,12.793,23.5,5.789,47.018,11.567,70.645,16.806,15.449,3.426,24.386-7.282,31.3-18.019,7.811-12.136,13.068-25.793,17.335-39.815,6.116-20.109,11.921-40.435,22.042-59.051,4.555-8.377,17.885-13.582,23.865-8.12,6.069,5.54,12,3.437,18.236,3.916q32.117,2.471,64.311,2.111c21.434-.228,42.874-.131,64.309.005,5.689.034,10.894-.615,14.76-5.325" transform="translate(950.041 352.43)"/><path class="c" d="M428.18,242.03c0,16.515.817,33.08-.17,49.538-2.148,35.839-1.9,71.685-1.933,107.542-.026,27.058-.872,54.156.314,81.162.728,16.591-.414,33.046-.32,49.564" transform="translate(375.145 176.501)"/><path class="c" d="M387.246,486.1c-20.866-9.283-42.219-3.641-63.235-1.4-41.63,4.448-81.531,17.461-122.31,26.17" transform="translate(12.307 563.391)"/><path class="c" d="M1240.1,648.571c-40.051-16.539-81.56-29.494-120.235-49.444-13.275-6.847-27.878-10.441-42.083-14.967-5.561-1.771-10.119-.215-14.792,2.211" transform="translate(1407.071 729.309)"/><path class="c" d="M620.9,386.773c-.422-2.8,1.336-5.878-.783-7.379-21.715,0-43.167-.571-64.568.238-10.781.409-12.615,3.816-11.588,14.519,2.661,27.7,3.238,55.5,4.2,83.286" transform="translate(566.16 398.63)"/><path class="c" d="M1089.958,485.525c12.879,6.787,27.359,8.047,41.161,11.4,37.109,9.013,74.448,17.076,111.706,25.474,2.2.5,3.573,3.348,6.321,2.135" transform="translate(1450.739 570.814)"/><path class="c" d="M980.083,460.17c1.307,8.455,6.452,11.963,14.716,13.891,38.269,8.935,76.371,18.592,114.947,26.2,7.774,1.532,15.47,3.481,23.2,5.239" transform="translate(1272.809 529.755)"/><path class="c" d="M1230.786,479.337c-17.22-2.811-34.464-5.472-51.649-8.474-18.91-3.3-37.805-6.53-56.927-8.482-16.56-1.687-33.041-4.128-49.559-6.237" transform="translate(1422.713 523.237)"/><path class="d" d="M467.226,351.5c19.179,6.286,39.419,5.951,60.474,7.557-3.8,16.059-7.24,29.743-12.73,43.17-5.983,14.624-8.02,29.945.115,45.268,12.28,23.129.964,38.817-10,48.325-7.028,6.1-16.856,6.176-25.314,8.055-12.772,2.834-25.332,8.047-38.9,6.855-6.25-.55-9.919,6.805-16.89,5.359-9.8-2.03-19.635,1.048-29.492.925" transform="translate(324.5 353.779)"/><path class="c" d="M357.1,504.191c-12.052-7.552-23.4-1.226-33.591,3.476-26.7,12.322-53.412,24.1-82.325,30.49-8.476,1.875-16.332,4.207-25.387,3.285-9.66-.982-17.9,6.355-27.375,8.081" transform="translate(-9.201 595.374)"/><path class="c" d="M1120.294,569.239c-2.491,2.043-4.592,4.634-8.437,4.251-20.761-2.072-38.66,7.74-56.788,15.064-18.815,7.6-38.078,13.76-57.15,20.507-5.42,1.917-11.863.943-17.835,1.294" transform="translate(1272.809 706.38)"/><path class="c" d="M1259.192,333.793c-40.763.354-81.531.414-122.289,1.171-22.5.417-44.983,1.993-67.472,3.046" transform="translate(1417.498 325.101)"/><path class="c" d="M1210.2,474.006c-3.052,4.047-7.473,3.282-11.6,3.133-37.25-1.354-74.5-2.7-111.748-4.241-9.754-.4-13.919-4.8-13.636-14.7.862-30.228,2.428-60.44,2.892-90.67.172-11.334-2.193-22.66-5.071-33.732" transform="translate(1420.105 325.101)"/><path class="c" d="M1038.844,369.211c3.445,1.255,4.914,3.678,5.333,7.371,3.756,33.046,7.313,66.121,11.8,99.068a182.74,182.74,0,0,1,1.839,22.176" transform="translate(1367.966 382.457)"/><path class="c" d="M743.429,295.156V531.3" transform="translate(889.574 262.533)"/><path class="c" d="M355.582,296.2c-16.56-3.031-31.946-9.532-47.463-15.753-21.379-8.571-42.366-18.121-64.227-25.523-5-1.692-9.584-2.09-14.794-2.352-13.375-.671-26.228-5.145-38.966-9.27-1.875-.608-3.575-.511-5.333-.867" transform="translate(-15.067 177.152)"/><path class="c" d="M985.494,536.639c-6.153,7.258-3.219,16.285-3.843,24.276-1.773,22.76-2.423,45.659-2.289,68.495.115,20.062.013,40.244,4.023,60.094" transform="translate(1271.615 653.588)"/><path class="d" d="M1021.3,360.357c18.449,3.6,37.659-.849,56.393,6,3.8,11.255-4.851,19.494-10.389,27.475-8.021,11.557-13.377,22.867-11.358,37.182a32.14,32.14,0,0,1-1.016,12.6c-7.672,28.075-11.486,56.888-16.785,85.418-3.858,20.78-11.455,24.719-30.534,15.777a176.514,176.514,0,0,0-28.352-10.973c-5.014-1.372-9.783-2.64-14.889-2.646-3.3,0-6.485.144-8.434-3.209" transform="translate(1233.703 368.119)"/><path class="c" d="M1217.479,90.7c-38.382,8.081-77.188,14.221-114.936,25.217-2.266.66-4.893.086-7.353.086" transform="translate(1459.212 -68.561)"/><path class="c" d="M1190.532,410.149l-113.857-6.326" transform="translate(1429.231 438.507)"/><path class="c" d="M763.607,348.435c-34.089-.7-68.172-1.483-102.264-2.009a20.032,20.032,0,0,1-10.629-3.114c-2.083-1.26-2.607,1.373-3.073,3.015" transform="translate(734.456 339.98)"/><path class="c" d="M732.24,410.632c-2.813-7.023-9.812-5.092-14.807-6.077-29.544-5.823-59.447-10.344-89.549-9.357-21.22.7-42.183,5.514-62.229,13.285-6.583,2.551-6.386,8.38-7.363,13.744" transform="translate(589.765 424.32)"/><path class="c" d="M918.6,289.477c-20.384.88-40.8,2.884-61.134,2.221-12.615-.409-24.934-3.678-38-2-17.765,2.281-35.838,2.048-53.7,3.735-4.233.4-8.471.293-12.678.786" transform="translate(905.216 252.925)"/><path class="c" d="M724.894,347.477c-2.541,14.891-9.045,28.418-14.844,42.135-7.292,17.243-16.877,33.5-19.221,52.707-.689,5.637-5.745,10.1-12.3,11.706a253.136,253.136,0,0,1-42.164,6.559,137.777,137.777,0,0,0-39.029,8.131" transform="translate(652.986 347.261)"/><path class="c" d="M464.549,221.673c-30.448-.372-60.573-4.175-90.678-8.332-3.774-.521-7.848-.828-11.583.951" transform="translate(272.358 129.388)"/><path class="c" d="M707.794,251.42c-29.107.181-57.781-4.018-86.463-8.33-4.809-.723-9.823-.1-14.742-.1" transform="translate(667.977 177.652)"/><path class="c" d="M696.833,364.381q-49.55,2.11-99.1,4.217" transform="translate(653.637 374.635)"/><path class="d" d="M1018.575,357.942c1.286,6.352-2.685,18.27-8.434,25.3-9.485,11.6-18.53,23.6-28.63,34.639-6.2,6.774-8.039,14.91-5.734,22.155,3.793,11.923.327,22.828-1.721,33.824-2.913,15.64-8,30.867-11.172,46.471C960.825,530.445,955.993,539,951.1,547.7" transform="translate(1225.882 364.208)"/><path class="c" d="M630.737,387.725c11.688,4.008,23.931,2.1,35.865,2.834,15.08.922,30.212,1.365,45.323,2.208,5.852.327,10.132,4.534,15.8,4.445" transform="translate(707.082 412.438)"/><path class="d" d="M451.127,354.722c-6.543,17.731-13.28,35.367-18.11,53.716-2.834,10.776-2.64,20.583,2.211,30.663,6.145,12.775,4.369,25.6-4.222,30.369-3.67,2.038-8.3,2.554-12.57,3.258-5.93.974-11.937,1.472-17.911,2.177" transform="translate(334.276 358.993)"/><path class="c" d="M801.716,440c3.513-19.68,6.433-39.5,10.857-58.965,1.582-6.957-2.216-13.456.482-20.206.566-1.409-2.318-4.018-5.016-4.073-2.564-.055-4.424.055-6.611,2.9a42.082,42.082,0,0,0-7.641,16.138c-4.555,21.9-20.112,36.69-32.334,53.514-8.741,12.033-22.458,19.782-30.424,32.795-1.556,2.543-4.526,3.078-7.329,3.172-31.142,1.045-61.542,9.1-92.763,9.846-4.162.1-3.963-.917-4.225-3.5" transform="translate(700.564 362.272)"/><path class="c" d="M466.7,374.041c-1.053,9.136-1.925,18.3-3.217,27.4-1.181,8.319-5.846,11.638-14.655,12.976-26.283,3.995-52.786,2.805-79.124,4.859-4.165.325-8.427-.608-12.644-.961" transform="translate(263.886 390.278)"/><path class="c" d="M411.107,444.876c-10.03,2.578-6.724,11.415-8.448,17.917-5.587,21.094-11.434,42.122-16.793,63.274-4.518,17.846-8.495,35.828-12.712,53.75" transform="translate(289.956 504.988)"/><path class="c" d="M393.278,407.043c3.217,15.35.864,30.93,1.773,46.408,1.606,27.338-.207,54.8,1.236,82.217.587,11.2-.547,22.482-.9,33.727" transform="translate(322.543 443.721)"/><path class="c" d="M366.715,328.722c7.732-7.5,15.892-.943,22.98.849,2.769.7,3.549,10.436,2.842,17.128-.8,7.531.32,13.731-10.006,13.775-5.579.023-4.118,6.635-3.822,8.235,3.735,20.29.155,40.988,3.733,61.233.288,1.635-.665,3.486-1.021,5.134,6.4,5.692,14.724-1.86,21.138,3.285" transform="translate(279.528 311.198)"/><path class="c" d="M389.4,426.362c-3.29,9.38-.262,19.009-.55,28.48-.605,19.978.851,40.121,2.894,60.05,1.661,16.193,1.726,32.331,1.873,48.519" transform="translate(313.768 475.006)"/><path class="c" d="M1127.559,354.722c-1.056,16.164-3.382,32.376-2.784,48.48.532,14.38-.959,28.7,1.943,43.4,2.263,11.473,1.431,24.434.841,36.732" transform="translate(1506.964 358.993)"/><path class="d" d="M471.866,463.955c-10.218-1.483-19.019-7.193-29.418-9.013-8.979-1.572-17.72-.2-26.982-2.318v18.564c-4.348-.063-7.785,5.024-12.125.147" transform="translate(338.838 517.535)"/><path class="c" d="M445.268,382.518c-.7-.351-1.407-1.006-2.109-1.008-13.788-.031-27.5.094-41.172-2.957a27.57,27.57,0,0,0-19,2.753c-7.374,3.879-15.378-.56-23.111.16" transform="translate(268.448 396.559)"/><path class="d" d="M490.8,446c-27.524-3.756-54.881-1-82.23,2.109" transform="translate(347.31 503.866)"/><path class="c" d="M1149.564,455.774c-12.848-1.915-25.9-2.991-37.908-8.526-1.469-.678-2.059-1.7-4.3-1.116-28.892,7.549-58.682,10.907-87.511,18.949-12.7,3.541-25.956,5.1-38.956,7.562" transform="translate(1274.113 506.739)"/><path class="c" d="M796.2,344.258c-5.886,4.76-5.257,11.444-5.265,17.922q-.027,28.989-.005,57.983" transform="translate(966.475 342.048)"/><path class="c" d="M814.481,359.552c-4.155,4.647-1.4,9.789-.917,14.828-5.2,5.076-11.661,1.357-17.018,1.485-13.312.317-26.684-1.326-40.061.437-1.291.17-2.8-1.291-4.2-1.993" transform="translate(903.914 366.815)"/><path class="c" d="M701.524,345.868c-6.575,14.818-7.877,31.076-12.652,46.384-1.755,5.624-3.872,11.166-5.15,16.9a12.386,12.386,0,0,0,3.041,11.57" transform="translate(792.321 344.655)"/><path class="c" d="M793.71,291.131c-.652,23.9-.191,47.825-.571,71.68-.351,21.83,2.127,43.584.571,65.372" transform="translate(970.018 256.015)"/><path class="c" d="M167.089,208.423c10.779.176,15.549,8.4,22.532,14.862,11.929,11.03,26.647,18.977,39.521,29.075,6.077,4.765,14.483,8.709,13.851,18.789" transform="translate(-43.745 122.078)"/><path class="c" d="M774.419,329.769c3.521,6.658,5.435,12.641,3.774,21.2-2.638,13.613-1.692,28-1.482,42.049.086,5.865.7,13.176,10.36,10.546" transform="translate(939.759 318.585)"/><path class="c" d="M648.228,387.725c-30.194,2.748-60.44.917-90.665,1a103.939,103.939,0,0,1-10.541-1" transform="translate(571.516 412.438)"/><path class="c" d="M793.738,344.258c3.89,3.8,5.236,7.685,4.563,13.741-1.469,13.23-1.029,26.671-1.412,40.024-.1,3.578-.084,7.059,3.175,9.487" transform="translate(971.044 342.048)"/><path class="c" d="M368.325,338.623v63.253" transform="translate(282.135 332.923)"/><path class="c" d="M811.363,609.889c-28.784,5.781-56.429,17.408-86.448,16.869" transform="translate(859.593 772.208)"/><path class="c" d="M449.328,396.526c-11.947-2.829-23.891.178-35.844.073-18.294-.157-36.475,3.146-54.819,2.035" transform="translate(266.493 424.721)"/><path class="c" d="M821.595,328.966c-25.9-.123-51.369,4.251-76.958,7.379" transform="translate(891.53 317.28)"/><path class="c" d="M808.9,362.159c-16.746-3.012-33.775-1.469-50.6-3.172-2.818-.286-5.624-.694-8.434-1.045" transform="translate(900.003 364.208)"/><path class="c" d="M1092.781,490.157c12.117,1.635,20.293-5.493,18.663-17.88-.8-6.046.157-11.339,1.558-17.791-12.63-2.5-23.283-10.774-38.408-6.347-7.395,2.161-17.28,2.25-26.091,1.957" transform="translate(1383.608 508.199)"/><path class="c" d="M559.1,461.779c15.711,10.813,28.166,25.243,42.259,37.853,4.9,4.387,4.49,9.435,4.128,14.86" transform="translate(591.069 532.36)"/><path class="c" d="M567.207,453.73c-3.24,16.316-5.131,32.91-11.426,48.563-1.716,4.262-2.727,8.351-7.552,9.946" transform="translate(573.471 519.326)"/><path class="c" d="M781.817,329.769c3.56,7.028-.417,14.084-.5,21.078-.2,16.489,2.578,33.059-1.263,49.635-1.433,6.182,1.058,13.272,1.763,19.949" transform="translate(948.177 318.585)"/><path class="c" d="M551.45,438.436c.956,24.2,14.137,41.106,32.682,54.821" transform="translate(578.685 494.559)"/><path class="d" d="M471.137,467.072c-17.681-10.213-36.858-15.939-56.93-18.977" transform="translate(356.436 510.201)"/><path class="c" d="M1043.259,477.328c-1.758-9.841-2.97-19.824-5.527-29.45-1.1-4.139-4.649-6.729-10.215-7.814-12.353-2.4-24.352-6.651-36.97-8.068" transform="translate(1289.754 484.132)"/><path class="c" d="M1184.623,256.268c-18.171-3.376-36.532-1.763-54.821-2.109" transform="translate(1515.262 195.998)"/><path class="c" d="M1033.34,557.165c-2.675,9.739,1.605,19.033,2.781,28.381.464,3.678,8.209,6.894,13.092,9.459,7.507,3.942,15.454,7.035,23.119,10.687,6.931,3.3,14.082,6.514,15.829,15.255" transform="translate(1357.654 686.827)"/><path class="d" d="M993.2,374.041c-6.326,12.649-12.948,25.164-18.844,38.013-2.7,5.873-6.048,9.621-12.783,9.427" transform="translate(1242.828 390.278)"/><path class="c" d="M1137.776,334.2c-1.758,14.056-3.717,28.093-5.155,42.18-.477,4.663-3.9,6.6-6.441,9.477" transform="translate(1509.397 325.754)"/><path class="c" d="M418.634,359.552c15.952,6.163,32.839,7.931,49.548,10.54" transform="translate(363.605 366.815)"/><path class="c" d="M415.012,396.579c6.195,3.7,12.906,4.809,20.033,4.243,8.18-.652,16.227.644,24.245,2.082" transform="translate(357.739 426.776)"/><path class="c" d="M396.5,393.359c2.428,14.058.595,28.114,0,42.17" transform="translate(327.758 421.562)"/><path class="c" d="M565.044,238.005H522.874" transform="translate(532.41 169.983)"/><path class="c" d="M405.166,370.821c-3.57,3.638-8.442,3.8-12.61,2.965-9.265-1.855-18.312.4-27.451.2" transform="translate(276.92 385.064)"/><path class="c" d="M1124.859,334.6c-.351,13-.644,26.008-1.087,39.005-.155,4.516.139,8.717,4.249,11.6" transform="translate(1505.448 326.405)"/><path class="c" d="M456.184,373.584c-12.7.107-25.078-5.422-37.952-2.109" transform="translate(362.954 384.409)"/><path class="c" d="M383.241,228.288,347.4,225.126" transform="translate(248.244 149.127)"/><path class="c" d="M418.232,382.895l35.844,6.326" transform="translate(362.954 404.617)"/><path class="c" d="M274.339,249.677c-3.578,11.331-.791,23.438-4.217,34.788" transform="translate(123.106 188.885)"/><path class="d" d="M1008.354,384.5c-10.229,1.1-12.8,10.383-17.856,16.919-2.489,3.219-4.283,6.978-6.391,10.491" transform="translate(1279.325 407.224)"/><path class="c" d="M417.427,374.846l31.627,2.106" transform="translate(361.65 391.582)"/><path class="c" d="M411.279,382.38c-8.867-4.859-17.1-12.149-28.465-7.379" transform="translate(305.598 389.318)"/><path class="c" d="M315.588,274.767c-14.64-4.636-30.409-5.158-44.391-12.432a7.894,7.894,0,0,0-8.319.833" transform="translate(111.375 208.073)"/><path class="c" d="M537.905,239.564c-9.723-3.641-19.606-2.732-29.521-1.053" transform="translate(508.947 168.424)"/><path class="c" d="M1049.912,454.132c2.858,8.877,15.968,15.287,24.677,11.384a17.013,17.013,0,0,1,7.476-1.894" transform="translate(1385.89 519.977)"/><path class="c" d="M225.891,506.856c-8.861,7.722-21.385,10.907-27.409,22.139" transform="translate(7.093 605.357)"/><path class="c" d="M448.555,382.443c-9.859-.411-19.4-5.281-29.518-2.109" transform="translate(364.257 398.742)"/><path class="c" d="M449.36,392.745c-10.1.377-19.7-2.7-29.518-4.215" transform="translate(365.561 413.742)"/><path class="c" d="M448.861,399.685c-9.291-1.441-17.872-5.962-27.409-6.326" transform="translate(368.168 421.562)"/><path class="d" d="M901.6,356.332c-1.81,8.694-3.68,17.382-3.161,26.356" transform="translate(1140.447 361.601)"/><path class="d" d="M823.924,349.087a83.253,83.253,0,0,1,23.192,11.6" transform="translate(1019.927 349.868)"/><path class="c" d="M1075.01,386.115c-4.083,7.316-.584,15.669-3.164,23.192" transform="translate(1421.409 409.831)"/><path class="d" d="M423.869,420.749c-7.447-1.058-14.928-2.834-22.139,1.056" transform="translate(336.23 463.751)"/><path class="c" d="M459.1,369.4c-13.644,1.344-26.878-1.2-40.061-4.217" transform="translate(364.257 375.939)"/><path class="c" d="M1050.918,462.584c6.991,1.069,13.922,2.75,21.083,2.109" transform="translate(1387.518 533.664)"/><path class="c" d="M1048.566,440.851c.424,5.265-1.027,10.658,1.053,15.813" transform="translate(1383.544 498.47)"/><path class="c" d="M202.1,249.677c4.112,5.095,10.737,6,15.813,9.487" transform="translate(12.958 188.885)"/><path class="d" d="M875.053,359.149c-2.588,4.348-7.62,7.567-6.326,13.7" transform="translate(1092.142 366.162)"/><path class="d" d="M404.4,432.8c.581,18.265.211,36.212-.656,54.008" transform="translate(339.49 461.24)"/><path class="c" d="M1167.9,252.9c-4.194,4.442-9.676,2.876-14.757,3.164" transform="translate(1553.065 194.097)"/><path class="d" d="M409,455.34l-13.7,4.217" transform="translate(325.803 521.933)"/><path class="d" d="M412.119,415.093c-2.5,4.754-6.8,5.558-11.6,5.27" transform="translate(334.276 456.758)"/><path class="c" d="M1059.772,452.925q.526,6.326,1.056,12.652" transform="translate(1401.856 518.022)"/><path class="c" d="M1062.992,452.925v25.3" transform="translate(1407.071 518.022)"/><path class="d" d="M966.169,363.423c-4.149,1.174-8.8-3.662-12.649,1.056" transform="translate(1229.793 371.376)"/><path class="c" d="M1063.567,451.161l-12.649-1.053" transform="translate(1387.518 513.46)"/><path class="c" d="M262.475,448.1c2.441,3.489.411,8.6,4.217,11.6" transform="translate(110.723 510.201)"/><path class="c" d="M1166.1,253.131c-3.6-.251-6.679-3.148-10.543-2.109" transform="translate(1556.975 190.701)"/><path class="c" d="M256.84,422.337c3.932,3.156-.1,7.109,1.056,10.543" transform="translate(101.597 468.488)"/><path class="c" d="M1126.18,388.932q4.742.527,9.487,1.056" transform="translate(1509.397 414.393)"/><path class="c" d="M783.256,328.559c-2.816.317-5.99-2.237-8.434,1.053" transform="translate(940.412 315.577)"/><path class="c" d="M1036.791,576.082c-4.063.6-3.031,3.754-3.164,6.323" transform="translate(1359.476 717.461)"/><path class="c" d="M848.12,409.458c.354,1.758-.9,3.835,1.053,5.27" transform="translate(1058.984 447.632)"/><path class="d" d="M407.365,430.387c5.953,17.539.7,36.3,2.532,54.295" transform="translate(343.518 461.071)"/></g></g></g></g></svg>