<svg xmlns="http://www.w3.org/2000/svg" xmlns:xlink="http://www.w3.org/1999/xlink" width="54" height="54" viewBox="0 0 54 54"><defs><style>.a,.d{fill:#b3b3b3;}.a{stroke:#707070;}.b,.f{fill:none;}.b{stroke:#b3b3b3;stroke-width:2px;}.c{clip-path:url(#a);}.e{stroke:none;}</style><clipPath id="a"><rect class="a" width="28" height="28" transform="translate(0 -0.127)"/></clipPath></defs><g class="b"><rect class="e" width="54" height="54" rx="6"/><rect class="f" x="1" y="1" width="52" height="52" rx="5"/></g><g class="c" transform="translate(13 13.127)"><g transform="translate(6.665 0.606)"><path class="d" d="M36.1.006,32.6,0C28.678,0,26.14,2.6,26.14,6.632V9.69H22.627a.55.55,0,0,0-.55.55V14.67a.55.55,0,0,0,.55.55H26.14V26.4a.549.549,0,0,0,.55.55h4.584a.55.55,0,0,0,.55-.55V15.22h4.108a.549.549,0,0,0,.55-.55l0-4.431a.55.55,0,0,0-.55-.55h-4.11V7.1c0-1.246.3-1.878,1.92-1.878H36.1a.549.549,0,0,0,.549-.55V.555A.55.55,0,0,0,36.1.006Z" transform="translate(-22.077)"/></g></g></svg>