<svg xmlns="http://www.w3.org/2000/svg" xmlns:xlink="http://www.w3.org/1999/xlink" width="54" height="54" viewBox="0 0 54 54"><defs><style>.a,.d{fill:#b3b3b3;}.a{stroke:#707070;}.b,.f{fill:none;}.b{stroke:#b3b3b3;stroke-width:2px;}.c{clip-path:url(#a);}.e{stroke:none;}</style><clipPath id="a"><rect class="a" width="28" height="28" transform="translate(0.348 -0.127)"/></clipPath></defs><g class="b"><rect class="e" width="54" height="54" rx="6"/><rect class="f" x="1" y="1" width="52" height="52" rx="5"/></g><g class="c" transform="translate(12.652 13.127)"><g transform="translate(0.606 0.606)"><path class="d" d="M18.528,0H8.422A8.423,8.423,0,0,0,0,8.422V18.528a8.423,8.423,0,0,0,8.422,8.422H18.528a8.423,8.423,0,0,0,8.422-8.422V8.422A8.423,8.423,0,0,0,18.528,0Zm5.9,18.528a5.9,5.9,0,0,1-5.9,5.9H8.422a5.9,5.9,0,0,1-5.9-5.9V8.422a5.9,5.9,0,0,1,5.9-5.9H18.528a5.9,5.9,0,0,1,5.9,5.9Z"/><g transform="translate(6.737 6.737)"><path class="d" d="M134.737,128a6.737,6.737,0,1,0,6.737,6.737A6.738,6.738,0,0,0,134.737,128Zm0,10.948a4.211,4.211,0,1,1,4.211-4.211A4.217,4.217,0,0,1,134.737,138.948Z" transform="translate(-128 -128)"/></g><g transform="translate(19.819 5.334)"><circle class="d" cx="0.898" cy="0.898" r="0.898"/></g></g></g></svg>