<svg xmlns="http://www.w3.org/2000/svg" xmlns:xlink="http://www.w3.org/1999/xlink" width="168" height="50" viewBox="0 0 168 50"><defs><style>.a{fill:none;stroke:#707070;}.b{clip-path:url(#a);}.c{fill:#00244e;}.d{fill:#f77a0c;}</style><clipPath id="a"><rect class="a" width="168" height="50" transform="translate(37 10)"/></clipPath></defs><g class="b" transform="translate(-37 -10)"><g transform="translate(-233.996 -940.939)"><g transform="translate(286.583 953.482)"><path class="c" d="M301.623,996.669a4.459,4.459,0,0,1,.884-2.416l6.319-9.722c.126-.2.126-.233.126-.32s-.095-.116-.221-.116h-5.244a1.615,1.615,0,0,1-1.833-1.834v-.524c0-1.135.569-1.746,1.833-1.746H314.2a1.66,1.66,0,0,1,1.832,1.688v.495a4.843,4.843,0,0,1-.979,2.737l-6.35,9.373a.408.408,0,0,0-.095.262c0,.087.063.145.221.145H314.7a1.615,1.615,0,0,1,1.832,1.833v.524c0,1.135-.568,1.746-1.832,1.746H303.329a1.593,1.593,0,0,1-1.706-1.63Z" transform="translate(-293.253 -965.238)"/><path class="c" d="M333.239,982.01c0-1.484.853-2.125,2.4-2.125h.663c1.548,0,2.4.641,2.4,2.125v14.67c0,1.485-.853,2.125-2.4,2.125h-.663c-1.548,0-2.4-.641-2.4-2.125Z" transform="translate(-307.275 -965.192)"/><path class="c" d="M286.583,955.607c0-1.484.853-2.125,2.4-2.125h.663c1.548,0,2.4.641,2.4,2.125v40.911c0,1.485-.853,2.125-2.4,2.125h-.663c-1.548,0-2.4-.64-2.4-2.125Z" transform="translate(-286.583 -953.482)"/><path class="c" d="M419.739,982.093c0-1.485.853-2.125,2.4-2.125h.663c1.548,0,2.4.641,2.4,2.125v26.171c0,1.485-.853,2.125-2.4,2.125h-.663c-1.548,0-2.4-.64-2.4-2.125Z" transform="translate(-345.637 -965.228)"/><path class="c" d="M348.905,989.113c0-7.626,4.739-9.751,9.288-9.751a14.188,14.188,0,0,1,4.234.495c.948.262,1.452.786,1.452,1.572a2.621,2.621,0,0,1-.126.757l-.158.553a1.555,1.555,0,0,1-1.675,1.194,4.167,4.167,0,0,1-.821-.087,12.39,12.39,0,0,0-2.653-.321c-2.528,0-3.917.728-3.917,5.589,0,4.831,1.327,5.676,3.538,5.676a7.192,7.192,0,0,0,1.864-.232.444.444,0,0,0,.38-.408v-2.067c0-.262-.126-.349-.38-.349H359.8a1.669,1.669,0,0,1-1.8-1.6v-.408a1.635,1.635,0,0,1,1.8-1.6h3.7a1.974,1.974,0,0,1,2.053,1.892v6.84a1.864,1.864,0,0,1-1.895,1.834h-.79c-.632,0-1.264-.059-1.548-.815l-.031-.087a.174.174,0,0,0-.19-.117.285.285,0,0,0-.189.088,6.01,6.01,0,0,1-3.507,1.106C352,998.864,348.905,996.39,348.905,989.113Z" transform="translate(-314.223 -964.96)"/><path class="c" d="M383.359,989.113c0-7.277,4.233-9.751,8.814-9.751,5.055,0,8.814,2.125,8.814,9.751,0,7.277-4.233,9.751-8.814,9.751C387.118,998.864,383.359,996.739,383.359,989.113Zm12,0c0-5.007-.916-5.647-3.19-5.647s-3.191.64-3.191,5.647.916,5.647,3.191,5.647S395.363,994.119,395.363,989.113Z" transform="translate(-329.503 -964.96)"/></g><g transform="translate(375.846 989.715)"><path class="d" d="M450.96,1027.073v-3.809h-2.944v3.809h-1.033v-8.135h1.033v3.448h2.944v-3.448h1.033v8.135Z" transform="translate(-446.983 -1018.744)"/><path class="d" d="M467.092,1022.852c0,1.718-.711,4.262-2.828,4.262s-2.828-2.544-2.828-4.262.71-4.262,2.828-4.262S467.092,1021.134,467.092,1022.852Zm-4.623,0c0,1.046.4,3.409,1.8,3.409s1.795-2.363,1.795-3.409-.4-3.41-1.795-3.41S462.469,1021.806,462.469,1022.852Z" transform="translate(-453.393 -1018.59)"/><path class="d" d="M477.944,1019.842v7.232h-1.008v-7.232h-1.976v-.9h4.972v.9Z" transform="translate(-459.391 -1018.744)"/><path class="d" d="M492.485,1019.8h-3.151v2.583h2.415v.891h-2.415v2.906h3.279v.891H488.3v-8.135h4.184Z" transform="translate(-465.307 -1018.744)"/><path class="d" d="M502.135,1026.222h2.8v.852h-3.784v-8.135h.981Z" transform="translate(-471.008 -1018.744)"/><path class="d" d="M516.52,1019.8h-3.151v2.583h2.415v.891h-2.415v2.906h3.28v.891h-4.313v-8.135h4.184Z" transform="translate(-475.967 -1018.744)"/><path class="d" d="M528.548,1019.546l-.581.49a1.76,1.76,0,0,0-1.33-.62,1.14,1.14,0,0,0-1.253,1.149c0,1.911,3.486,1.731,3.486,4.34a2.231,2.231,0,0,1-2.4,2.208,3.273,3.273,0,0,1-1.938-.762l.439-.736a2.821,2.821,0,0,0,1.511.672,1.343,1.343,0,0,0,1.4-1.395c0-1.679-3.5-1.756-3.5-4.171a2.03,2.03,0,0,1,2.26-2.131A2.344,2.344,0,0,1,528.548,1019.546Z" transform="translate(-481.306 -1018.59)"/></g></g></g></svg>