<svg xmlns="http://www.w3.org/2000/svg" xmlns:xlink="http://www.w3.org/1999/xlink" width="224" height="76" viewBox="0 0 224 76"><defs><style>.a{fill:none;stroke:#707070;}.b{clip-path:url(#a);}.c{fill:#fff;}.d{fill:#f77a0c;}</style><clipPath id="a"><rect class="a" width="224" height="76" transform="translate(848 136)"/></clipPath></defs><g class="b" transform="translate(-848 -136)"><g transform="translate(565.417 -815.326)"><g transform="translate(286.583 953.482)"><path class="c" d="M301.623,1006.441a7.071,7.071,0,0,1,1.4-3.831l10.021-15.419c.2-.323.2-.369.2-.508s-.15-.185-.35-.185H304.58c-2,0-2.906-1.016-2.906-2.909v-.831c0-1.8.9-2.769,2.906-2.769h16.984a2.633,2.633,0,0,1,2.905,2.677v.784a7.681,7.681,0,0,1-1.553,4.34l-10.071,14.864a.648.648,0,0,0-.15.416c0,.137.1.23.35.23h9.319c2,0,2.905,1.016,2.905,2.908v.831c0,1.8-.9,2.77-2.905,2.77H304.329a2.527,2.527,0,0,1-2.706-2.585Z" transform="translate(-288.349 -956.595)"/><path class="c" d="M333.239,983.255c0-2.354,1.353-3.37,3.808-3.37H338.1c2.454,0,3.807,1.016,3.807,3.37v23.266c0,2.355-1.353,3.371-3.807,3.371h-1.052c-2.455,0-3.808-1.016-3.808-3.371Z" transform="translate(-292.061 -956.582)"/><path class="c" d="M286.583,956.852c0-2.354,1.353-3.37,3.808-3.37h1.052c2.454,0,3.807,1.016,3.807,3.37v64.882c0,2.355-1.353,3.37-3.807,3.37h-1.052c-2.455,0-3.808-1.015-3.808-3.37Z" transform="translate(-286.583 -953.482)"/><path class="c" d="M419.739,983.339c0-2.355,1.353-3.371,3.808-3.371H424.6c2.454,0,3.807,1.016,3.807,3.371v41.505c0,2.355-1.353,3.37-3.807,3.37h-1.052c-2.455,0-3.808-1.015-3.808-3.37Z" transform="translate(-302.218 -956.592)"/><path class="c" d="M348.905,994.827c0-12.095,7.515-15.465,14.729-15.465a22.5,22.5,0,0,1,6.715.785c1.5.416,2.3,1.246,2.3,2.492a4.157,4.157,0,0,1-.2,1.2l-.251.876a2.466,2.466,0,0,1-2.656,1.893,6.61,6.61,0,0,1-1.3-.138,19.65,19.65,0,0,0-4.208-.508c-4.009,0-6.213,1.154-6.213,8.864,0,7.662,2.1,9,5.61,9a11.4,11.4,0,0,0,2.956-.369.7.7,0,0,0,.6-.646v-3.278c0-.416-.2-.554-.6-.554h-.2a2.648,2.648,0,0,1-2.856-2.538V995.8a2.593,2.593,0,0,1,2.856-2.539h5.862a3.13,3.13,0,0,1,3.256,3v10.848a2.956,2.956,0,0,1-3.005,2.908H371.05c-1,0-2-.093-2.455-1.292l-.049-.139a.276.276,0,0,0-.3-.185.451.451,0,0,0-.3.139,9.531,9.531,0,0,1-5.562,1.754C353.815,1010.291,348.905,1006.367,348.905,994.827Z" transform="translate(-293.901 -956.521)"/><path class="c" d="M383.359,994.827c0-11.541,6.713-15.465,13.978-15.465,8.016,0,13.978,3.37,13.978,15.465,0,11.541-6.714,15.465-13.978,15.465C389.321,1010.291,383.359,1006.921,383.359,994.827Zm19.038,0c0-7.941-1.453-8.956-5.06-8.956s-5.061,1.015-5.061,8.956,1.453,8.956,5.061,8.956S402.4,1002.766,402.4,994.827Z" transform="translate(-297.946 -956.521)"/></g><g transform="translate(428.149 1010.945)"><path class="d" d="M453.291,1031.84V1025.8h-4.67v6.041h-1.638v-12.9h1.638v5.468h4.67v-5.468h1.638v12.9Z" transform="translate(-446.983 -1018.631)"/><path class="d" d="M470.407,1025.349c0,2.724-1.127,6.759-4.485,6.759s-4.485-4.035-4.485-6.759,1.126-6.759,4.485-6.759S470.407,1022.624,470.407,1025.349Zm-7.332,0c0,1.658.634,5.406,2.847,5.406s2.846-3.748,2.846-5.406-.634-5.408-2.846-5.408S463.074,1023.69,463.074,1025.349Z" transform="translate(-448.68 -1018.59)"/><path class="d" d="M479.693,1020.371v11.469h-1.6v-11.469h-3.133v-1.433h7.885v1.433Z" transform="translate(-450.268 -1018.631)"/><path class="d" d="M494.937,1020.31h-5v4.1h3.83v1.413h-3.83v4.608h5.2v1.413H488.3v-12.9h6.636Z" transform="translate(-451.834 -1018.631)"/><path class="d" d="M502.71,1030.489h4.445v1.351h-6v-12.9h1.556Z" transform="translate(-453.344 -1018.631)"/><path class="d" d="M518.971,1020.31h-5v4.1H517.8v1.413h-3.831v4.608h5.2v1.413h-6.84v-12.9h6.635Z" transform="translate(-454.657 -1018.631)"/><path class="d" d="M530.992,1020.106l-.922.778a2.791,2.791,0,0,0-2.109-.982,1.808,1.808,0,0,0-1.987,1.822c0,3.031,5.529,2.745,5.529,6.883a3.539,3.539,0,0,1-3.808,3.5,5.19,5.19,0,0,1-3.073-1.209l.7-1.167a4.475,4.475,0,0,0,2.4,1.065,2.13,2.13,0,0,0,2.213-2.212c0-2.662-5.551-2.786-5.551-6.615,0-2.191,1.455-3.379,3.584-3.379A3.717,3.717,0,0,1,530.992,1020.106Z" transform="translate(-456.07 -1018.59)"/></g></g></g></svg>