<svg xmlns="http://www.w3.org/2000/svg" xmlns:xlink="http://www.w3.org/1999/xlink" width="258" height="89" viewBox="0 0 258 89"><defs><style>.a{fill:none;stroke:#707070;}.b{clip-path:url(#a);}.c{fill:#fff;}.d{fill:#f77a0c;}</style><clipPath id="a"><rect class="a" width="258" height="89" transform="translate(158 7170)"/></clipPath></defs><g class="b" transform="translate(-158 -7170)"><g transform="translate(-125.583 6219.518)"><g transform="translate(286.583 953.482)"><path class="c" d="M301.623,1010.708a8.212,8.212,0,0,1,1.629-4.449l11.637-17.906c.233-.375.233-.428.233-.589s-.174-.214-.407-.214h-9.658c-2.328,0-3.375-1.18-3.375-3.378v-.965c0-2.091,1.048-3.216,3.375-3.216h19.724a3.058,3.058,0,0,1,3.374,3.109v.911a8.92,8.92,0,0,1-1.8,5.04l-11.7,17.262a.752.752,0,0,0-.174.483c0,.16.117.267.407.267h10.822c2.327,0,3.374,1.18,3.374,3.377v.965c0,2.091-1.047,3.216-3.374,3.216H304.766a2.934,2.934,0,0,1-3.142-3Z" transform="translate(-286.208 -952.821)"/><path class="c" d="M333.239,983.8c0-2.733,1.571-3.913,4.423-3.913h1.222c2.85,0,4.422,1.18,4.422,3.913v27.018c0,2.735-1.571,3.914-4.422,3.914h-1.222c-2.851,0-4.423-1.18-4.423-3.914Z" transform="translate(-285.419 -952.823)"/><path class="c" d="M286.583,957.4c0-2.734,1.571-3.913,4.423-3.913h1.222c2.85,0,4.422,1.18,4.422,3.913v75.347c0,2.735-1.571,3.913-4.422,3.913h-1.222c-2.851,0-4.423-1.179-4.423-3.913Z" transform="translate(-286.583 -953.482)"/><path class="c" d="M419.739,983.882c0-2.734,1.571-3.914,4.423-3.914h1.222c2.85,0,4.422,1.18,4.422,3.914v48.2c0,2.735-1.571,3.913-4.422,3.913h-1.222c-2.851,0-4.423-1.179-4.423-3.913Z" transform="translate(-283.262 -952.821)"/><path class="c" d="M348.905,997.321c0-14.046,8.727-17.959,17.105-17.959a26.126,26.126,0,0,1,7.8.911c1.745.483,2.675,1.447,2.675,2.895a4.822,4.822,0,0,1-.232,1.395l-.291,1.018a2.864,2.864,0,0,1-3.084,2.2,7.668,7.668,0,0,1-1.513-.161,22.82,22.82,0,0,0-4.887-.59c-4.655,0-7.215,1.341-7.215,10.293,0,8.9,2.443,10.453,6.516,10.453a13.243,13.243,0,0,0,3.433-.428.818.818,0,0,0,.7-.751v-3.806c0-.483-.233-.644-.7-.644h-.232a3.075,3.075,0,0,1-3.317-2.948v-.751a3.012,3.012,0,0,1,3.317-2.949h6.808a3.635,3.635,0,0,1,3.781,3.485v12.6a3.432,3.432,0,0,1-3.49,3.377h-1.455c-1.163,0-2.328-.108-2.851-1.5l-.057-.161a.32.32,0,0,0-.35-.215.523.523,0,0,0-.348.161,11.067,11.067,0,0,1-6.459,2.038C354.607,1015.28,348.905,1010.723,348.905,997.321Z" transform="translate(-285.029 -952.836)"/><path class="c" d="M383.359,997.321c0-13.4,7.8-17.959,16.233-17.959,9.31,0,16.233,3.913,16.233,17.959,0,13.4-7.8,17.959-16.233,17.959C390.282,1015.28,383.359,1011.367,383.359,997.321Zm22.109,0c0-9.221-1.687-10.4-5.876-10.4s-5.877,1.179-5.877,10.4,1.687,10.4,5.877,10.4S405.468,1006.541,405.468,997.321Z" transform="translate(-284.169 -952.836)"/></g><g transform="translate(450.983 1020.214)"><path class="d" d="M454.308,1033.922v-7.016h-5.423v7.016h-1.9v-14.984h1.9v6.351h5.423v-6.351h1.9v14.984Z" transform="translate(-446.983 -1018.581)"/><path class="d" d="M471.853,1026.439c0,3.163-1.309,7.849-5.209,7.849s-5.209-4.686-5.209-7.849,1.308-7.849,5.209-7.849S471.853,1023.275,471.853,1026.439Zm-8.515,0c0,1.926.737,6.278,3.306,6.278s3.305-4.352,3.305-6.278-.737-6.28-3.305-6.28S463.338,1024.512,463.338,1026.439Z" transform="translate(-446.623 -1018.59)"/><path class="d" d="M480.456,1020.6v13.319H478.6V1020.6h-3.639v-1.665h9.157v1.665Z" transform="translate(-446.285 -1018.581)"/><path class="d" d="M496.008,1020.531h-5.8v4.758h4.447v1.641H490.2v5.351h6.04v1.641H488.3v-14.984h7.707Z" transform="translate(-445.952 -1018.581)"/><path class="d" d="M502.961,1032.352h5.162v1.569h-6.969v-14.984h1.807Z" transform="translate(-445.632 -1018.581)"/><path class="d" d="M520.041,1020.531h-5.8v4.758h4.448v1.641h-4.448v5.351h6.041v1.641h-7.943v-14.984h7.705Z" transform="translate(-445.353 -1018.581)"/><path class="d" d="M532.059,1020.35l-1.071.9a3.24,3.24,0,0,0-2.45-1.141,2.1,2.1,0,0,0-2.307,2.117c0,3.519,6.421,3.187,6.421,7.992a4.11,4.11,0,0,1-4.423,4.067,6.025,6.025,0,0,1-3.569-1.4l.809-1.356a5.2,5.2,0,0,0,2.783,1.237,2.473,2.473,0,0,0,2.569-2.569c0-3.092-6.446-3.235-6.446-7.682,0-2.545,1.689-3.924,4.162-3.924A4.317,4.317,0,0,1,532.059,1020.35Z" transform="translate(-445.053 -1018.59)"/></g></g></g></svg>