<svg xmlns="http://www.w3.org/2000/svg" xmlns:xlink="http://www.w3.org/1999/xlink" width="194" height="68" viewBox="0 0 194 68"><defs><style>.a{fill:#fff;stroke:#707070;}.b{clip-path:url(#a);}.c{fill:#00244e;}.d{fill:#f77a0c;}</style><clipPath id="a"><rect class="a" width="194" height="68" transform="translate(166 22)"/></clipPath></defs><g class="b" transform="translate(-166 -22)"><g transform="translate(-120.355 -929.482)"><g transform="translate(286.583 953.482)"><path class="c" d="M301.623,1003.626a6.32,6.32,0,0,1,1.253-3.424l8.954-13.778c.179-.289.179-.329.179-.453s-.134-.165-.313-.165h-7.432a2.289,2.289,0,0,1-2.6-2.6v-.742c0-1.609.806-2.475,2.6-2.475h15.177a2.353,2.353,0,0,1,2.6,2.392v.7a6.864,6.864,0,0,1-1.387,3.878l-9,13.283a.579.579,0,0,0-.134.372c0,.123.09.206.313.206h8.328a2.288,2.288,0,0,1,2.6,2.6v.743c0,1.609-.805,2.475-2.6,2.475H304.041a2.258,2.258,0,0,1-2.418-2.31Z" transform="translate(-289.762 -959.084)"/><path class="c" d="M333.239,982.9c0-2.1,1.209-3.011,3.4-3.011h.94c2.193,0,3.4.908,3.4,3.011v20.79c0,2.1-1.209,3.012-3.4,3.012h-.94c-2.194,0-3.4-.908-3.4-3.012Z" transform="translate(-296.443 -959.062)"/><path class="c" d="M286.583,956.493c0-2.1,1.209-3.011,3.4-3.011h.94c2.193,0,3.4.908,3.4,3.011v57.978c0,2.1-1.209,3.011-3.4,3.011h-.94c-2.194,0-3.4-.907-3.4-3.011Z" transform="translate(-286.583 -953.482)"/><path class="c" d="M419.739,982.98c0-2.1,1.209-3.012,3.4-3.012h.94c2.193,0,3.4.908,3.4,3.012v37.088c0,2.1-1.209,3.011-3.4,3.011h-.94c-2.194,0-3.4-.907-3.4-3.011Z" transform="translate(-314.724 -959.08)"/><path class="c" d="M348.905,993.181c0-10.808,6.716-13.819,13.162-13.819a20.107,20.107,0,0,1,6,.7c1.343.371,2.058,1.114,2.058,2.227a3.711,3.711,0,0,1-.178,1.073l-.224.783a2.2,2.2,0,0,1-2.373,1.692,5.9,5.9,0,0,1-1.164-.124,17.563,17.563,0,0,0-3.76-.454c-3.582,0-5.551,1.031-5.551,7.921,0,6.847,1.88,8.044,5.013,8.044a10.188,10.188,0,0,0,2.641-.33.63.63,0,0,0,.538-.578v-2.929c0-.371-.179-.5-.538-.5h-.178a2.366,2.366,0,0,1-2.552-2.268v-.578a2.317,2.317,0,0,1,2.552-2.269h5.238a2.8,2.8,0,0,1,2.909,2.682v9.694a2.641,2.641,0,0,1-2.685,2.6h-1.12c-.9,0-1.791-.083-2.194-1.155l-.044-.124a.247.247,0,0,0-.269-.166.4.4,0,0,0-.268.124,8.516,8.516,0,0,1-4.97,1.568C353.292,1007,348.905,1003.493,348.905,993.181Z" transform="translate(-299.754 -958.951)"/><path class="c" d="M383.359,993.181c0-10.313,6-13.819,12.491-13.819,7.163,0,12.491,3.011,12.491,13.819,0,10.313-6,13.819-12.491,13.819C388.686,1007,383.359,1003.989,383.359,993.181Zm17.012,0c0-7.1-1.3-8-4.521-8s-4.522.907-4.522,8,1.3,8,4.522,8S400.371,1000.276,400.371,993.181Z" transform="translate(-307.036 -958.951)"/></g><g transform="translate(413.084 1004.83)"><path class="d" d="M452.62,1030.467v-5.4h-4.173v5.4h-1.464v-11.529h1.464v4.887h4.173v-4.887h1.464v11.529Z" transform="translate(-446.983 -1018.664)"/><path class="d" d="M469.452,1024.63c0,2.434-1.007,6.04-4.008,6.04s-4.008-3.606-4.008-6.04,1.006-6.04,4.008-6.04S469.452,1022.2,469.452,1024.63Zm-6.552,0c0,1.482.567,4.831,2.544,4.831s2.543-3.349,2.543-4.831-.567-4.832-2.543-4.832S462.9,1023.147,462.9,1024.63Z" transform="translate(-450.037 -1018.59)"/><path class="d" d="M479.189,1020.219v10.249h-1.428v-10.249h-2.8v-1.281h7.046v1.281Z" transform="translate(-452.896 -1018.664)"/><path class="d" d="M494.231,1020.164h-4.465v3.661h3.422v1.263h-3.422v4.118h4.648v1.263H488.3v-11.529h5.93Z" transform="translate(-455.715 -1018.664)"/><path class="d" d="M502.544,1029.26h3.972v1.208h-5.362v-11.529h1.39Z" transform="translate(-458.432 -1018.664)"/><path class="d" d="M518.265,1020.164H513.8v3.661h3.423v1.263H513.8v4.118h4.648v1.263h-6.112v-11.529h5.929Z" transform="translate(-460.795 -1018.664)"/><path class="d" d="M530.288,1019.944l-.824.7a2.493,2.493,0,0,0-1.885-.878,1.616,1.616,0,0,0-1.775,1.629c0,2.708,4.941,2.453,4.941,6.15a3.162,3.162,0,0,1-3.4,3.129,4.636,4.636,0,0,1-2.746-1.081l.622-1.043a4,4,0,0,0,2.141.952,1.9,1.9,0,0,0,1.977-1.977c0-2.379-4.96-2.489-4.96-5.911a2.878,2.878,0,0,1,3.2-3.02A3.323,3.323,0,0,1,530.288,1019.944Z" transform="translate(-463.339 -1018.59)"/></g></g></g></svg>