<svg xmlns="http://www.w3.org/2000/svg" xmlns:xlink="http://www.w3.org/1999/xlink" width="54" height="54" viewBox="0 0 54 54"><defs><style>.a,.d{fill:#b3b3b3;}.a{stroke:#f2f2f2;}.b,.f{fill:none;}.b{stroke:#b3b3b3;stroke-width:2px;}.c{clip-path:url(#a);}.e{stroke:none;}</style><clipPath id="a"><rect class="a" width="28" height="28" transform="translate(0.022 -0.127)"/></clipPath></defs><g class="b"><rect class="e" width="54" height="54" rx="6"/><rect class="f" x="1" y="1" width="52" height="52" rx="5"/></g><g class="c" transform="translate(12.978 13.127)"><g transform="translate(0.606 0.606)"><path class="d" d="M13.422,0a13.475,13.475,0,0,0,0,26.949A13.6,13.6,0,0,0,26.949,13.422,13.5,13.5,0,0,0,13.422,0Zm0,25.381A11.906,11.906,0,1,1,25.381,13.422,11.927,11.927,0,0,1,13.422,25.381Z"/><g transform="translate(4.737 4.737)"><path class="d" d="M98.685,90a8.738,8.738,0,0,0,0,17.475,9,9,0,0,0,5.387-1.79.79.79,0,0,0-.961-1.253,7.4,7.4,0,0,1-4.425,1.474,7.169,7.169,0,1,1,7.211-7.222v.79a1.579,1.579,0,1,1-3.158,0V95.527a.79.79,0,1,0-1.579,0v.05a4.068,4.068,0,0,0-2.474-.84,3.948,3.948,0,0,0,0,7.9,4.088,4.088,0,0,0,3.039-1.359,3.157,3.157,0,0,0,5.751-1.8v-.79A8.768,8.768,0,0,0,98.685,90Zm0,11.064a2.379,2.379,0,0,1,0-4.758,2.381,2.381,0,1,1,0,4.758Z" transform="translate(-90 -90)"/></g></g></g></svg>