<svg xmlns="http://www.w3.org/2000/svg" xmlns:xlink="http://www.w3.org/1999/xlink" width="54" height="54" viewBox="0 0 54 54"><defs><style>.a,.d{fill:#b3b3b3;}.a{stroke:#707070;}.b,.f{fill:none;}.b{stroke:#b3b3b3;stroke-width:2px;}.c{clip-path:url(#a);}.e{stroke:none;}</style><clipPath id="a"><rect class="a" width="28" height="28" transform="translate(-0.326 -0.127)"/></clipPath></defs><g class="b"><rect class="e" width="54" height="54" rx="6"/><rect class="f" x="1" y="1" width="52" height="52" rx="5"/></g><g class="c" transform="translate(13.326 13.127)"><g transform="translate(0.606 3.03)"><g transform="translate(0)"><path class="d" d="M26.949,50.592a11.519,11.519,0,0,1-3.183.872,5.494,5.494,0,0,0,2.43-3.054,11.041,11.041,0,0,1-3.5,1.337,5.524,5.524,0,0,0-9.557,3.778,5.689,5.689,0,0,0,.128,1.26A15.638,15.638,0,0,1,1.876,49.007a5.526,5.526,0,0,0,1.7,7.384,5.456,5.456,0,0,1-2.5-.68v.061A5.55,5.55,0,0,0,5.5,61.2a5.514,5.514,0,0,1-1.449.182,4.885,4.885,0,0,1-1.046-.094,5.577,5.577,0,0,0,5.162,3.849,11.1,11.1,0,0,1-6.85,2.356A10.349,10.349,0,0,1,0,67.417,15.554,15.554,0,0,0,8.475,69.9,15.616,15.616,0,0,0,24.2,54.175c0-.244-.008-.48-.02-.714A11.022,11.022,0,0,0,26.949,50.592Z" transform="translate(0 -48)"/></g></g></g></svg>