<svg id="rooms" xmlns="http://www.w3.org/2000/svg" width="24" height="24" viewBox="0 0 24 24">
  <g id="Group_2031" data-name="Group 2031" transform="translate(0 -104)">
    <g id="Group_2030" data-name="Group 2030">
      <path id="Path_404" data-name="Path 404" d="M7.5,126.5a6.5,6.5,0,1,1,3.83-11.74l8.96-8.96a1,1,0,0,1,1.41,1.41l-1.29,1.29,2.29,2.29a1,1,0,0,1,0,1.41l-3.5,3.5a1,1,0,0,1-1.41,0l-2.29-2.29-2.75,2.75A6.505,6.505,0,0,1,7.5,126.5Zm0-11a4.5,4.5,0,1,0,3.18,1.32A4.466,4.466,0,0,0,7.5,115.5Zm9.41-3.5,1.59,1.59,2.09-2.09L19,109.91Z" fill="#f77a0c"/>
    </g>
  </g>
</svg>
